<?xml version="1.0" encoding="UTF-8" standalone="no"?>
<svg
   width="100%"
   height="100%"
   viewBox="0 0 640 480"
   version="1.1"
   xml:space="preserve"
   style="fill-rule:evenodd;clip-rule:evenodd;stroke-linejoin:round;stroke-miterlimit:2;"
   id="svg3"
   sodipodi:docname="br-white.svg"
   inkscape:version="1.3.2 (091e20e, 2023-11-25, custom)"
   xmlns:inkscape="http://www.inkscape.org/namespaces/inkscape"
   xmlns:sodipodi="http://sodipodi.sourceforge.net/DTD/sodipodi-0.dtd"
   xmlns="http://www.w3.org/2000/svg"
   xmlns:svg="http://www.w3.org/2000/svg"><defs
   id="defs3">
        
        
        
        
    </defs><sodipodi:namedview
   id="namedview3"
   pagecolor="#ffffff"
   bordercolor="#000000"
   borderopacity="0.25"
   inkscape:showpageshadow="2"
   inkscape:pageopacity="0.0"
   inkscape:pagecheckerboard="0"
   inkscape:deskcolor="#d1d1d1"
   inkscape:zoom="0.60472362"
   inkscape:cx="95.084759"
   inkscape:cy="346.43925"
   inkscape:window-width="2560"
   inkscape:window-height="1017"
   inkscape:window-x="-8"
   inkscape:window-y="-8"
   inkscape:window-maximized="1"
   inkscape:current-layer="svg3" />
    <path
   id="rect1"
   style="fill:#f2f2f2"
   d="M 0 0 L 0 480 L 640 480 L 640 0 L 0 0 z M 319.59961 44 L 622.90039 240.30078 L 321.40039 436 L 17.099609 240.69922 L 319.59961 44 z M 325.40039 112.5 C 276.20039 112.5 233.16619 141.01958 211.98047 182.27539 C 307.12457 176.11194 382.4704 206.58365 450.14062 265.94922 C 451.87953 257.57061 452.80078 248.8927 452.80078 240 L 452.80078 239.90039 C 452.80078 170.01153 395.29025 112.5 325.40039 112.5 z M 233.98438 201.71094 C 224.08072 201.71023 213.91111 202.17976 203.49023 203.16016 C 199.93451 214.81476 198 227.14721 198 239.90039 C 198 309.71425 255.38536 367.19078 325.19922 367.30078 C 379.53883 367.30078 425.8879 333.42103 444.29492 285.70508 C 403.13462 246.397 331.15355 201.71783 233.98438 201.71094 z " />
</svg>
