<?xml version="1.0" encoding="UTF-8" standalone="no"?>
<svg
   width="100%"
   height="100%"
   viewBox="0 0 640 480"
   version="1.1"
   xml:space="preserve"
   style="fill-rule:evenodd;clip-rule:evenodd;stroke-linejoin:round;stroke-miterlimit:2;"
   id="svg3"
   sodipodi:docname="br.svg"
   inkscape:version="1.3.2 (091e20e, 2023-11-25, custom)"
   xmlns:inkscape="http://www.inkscape.org/namespaces/inkscape"
   xmlns:sodipodi="http://sodipodi.sourceforge.net/DTD/sodipodi-0.dtd"
   xmlns="http://www.w3.org/2000/svg"
   xmlns:svg="http://www.w3.org/2000/svg"><defs
   id="defs3" /><sodipodi:namedview
   id="namedview3"
   pagecolor="#ffffff"
   bordercolor="#000000"
   borderopacity="0.25"
   inkscape:showpageshadow="2"
   inkscape:pageopacity="0.0"
   inkscape:pagecheckerboard="0"
   inkscape:deskcolor="#d1d1d1"
   inkscape:zoom="1.7104167"
   inkscape:cx="319.80512"
   inkscape:cy="240"
   inkscape:window-width="2560"
   inkscape:window-height="1017"
   inkscape:window-x="-8"
   inkscape:window-y="-8"
   inkscape:window-maximized="1"
   inkscape:current-layer="g3" />
    <g
   id="g3">
        <rect
   x="0"
   y="0"
   width="640"
   height="480"
   style="fill:rgb(34,158,69);"
   id="rect1" />
        <path
   d="M321.4,436L622.9,240.3L319.6,44L17.1,240.7L321.4,436Z"
   style="fill:rgb(248,229,9);"
   id="path1" />
        <path
   d="M452.8,240C452.8,310.3 395.7,367.3 325.2,367.3C255.386,367.19 198,309.714 198,239.9C198,170.011 255.51,112.5 325.4,112.5C395.29,112.5 452.8,170.011 452.8,239.9C452.8,239.933 452.8,239.967 452.8,240"
   style="fill:rgb(43,73,163);"
   id="path2" />
        <path
   d="m 444.4,285.8 c 2.477,-6.428 4.417,-13.051 5.8,-19.8 -67.8,-59.5 -143.3,-90 -238.7,-83.7 -3.46,6.695 -6.305,13.69 -8.5,20.9 113,-10.8 196,39.2 241.4,82.6"
   style="fill:#ffffff"
   id="path3" />
    </g>
</svg>
