<?xml version="1.0" encoding="UTF-8" standalone="no"?>
<svg
   width="100%"
   height="100%"
   viewBox="0 0 640 480"
   version="1.1"
   xml:space="preserve"
   style="fill-rule:evenodd;clip-rule:evenodd;"
   id="svg4"
   sodipodi:docname="us-white.svg"
   inkscape:version="1.3.2 (091e20e, 2023-11-25, custom)"
   xmlns:inkscape="http://www.inkscape.org/namespaces/inkscape"
   xmlns:sodipodi="http://sodipodi.sourceforge.net/DTD/sodipodi-0.dtd"
   xmlns="http://www.w3.org/2000/svg"
   xmlns:svg="http://www.w3.org/2000/svg"><defs
   id="defs4" /><sodipodi:namedview
   id="namedview4"
   pagecolor="#ffffff"
   bordercolor="#000000"
   borderopacity="0.25"
   inkscape:showpageshadow="2"
   inkscape:pageopacity="0.0"
   inkscape:pagecheckerboard="0"
   inkscape:deskcolor="#d1d1d1"
   inkscape:zoom="0.85520835"
   inkscape:cx="615.63945"
   inkscape:cy="111.66869"
   inkscape:window-width="2560"
   inkscape:window-height="1017"
   inkscape:window-x="-8"
   inkscape:window-y="-8"
   inkscape:window-maximized="1"
   inkscape:current-layer="svg4" />
    
    <path
   id="path41"
   style="color:#000000;clip-rule:nonzero;fill:#ffffff;fill-rule:nonzero;stroke-width:1.33901;-inkscape-stroke:none"
   d="M 364.80078 0 L 364.80078 36.800781 L 640 36.800781 L 640 0 L 364.80078 0 z M 182.40039 19.880859 L 155.25391 103.43164 L 67.402344 103.43164 L 138.47461 155.06836 L 111.32812 238.61914 L 182.40039 186.98242 L 253.47266 238.61914 L 226.32617 155.06836 L 297.39844 103.43164 L 209.54688 103.43164 L 182.40039 19.880859 z M 364.80078 73.800781 L 364.80078 110.5 L 640 110.5 L 640 73.800781 L 364.80078 73.800781 z M 364.80078 147.5 L 364.80078 184.5 L 640 184.5 L 640 147.5 L 364.80078 147.5 z M 364.80078 221.5 L 364.80078 258.5 L 640 258.5 L 640 221.5 L 364.80078 221.5 z M 0 295.5 L 0 332.5 L 640 332.5 L 640 295.5 L 0 295.5 z M 0 369.5 L 0 406.5 L 640 406.5 L 640 369.5 L 0 369.5 z M 0 443.5 L 0 480 L 640 480 L 640 443.5 L 0 443.5 z " />
    
    
</svg>
