<?xml version="1.0" encoding="UTF-8" standalone="no"?>
<svg
   width="100%"
   height="100%"
   viewBox="0 0 640 480"
   version="1.1"
   xml:space="preserve"
   style="fill-rule:evenodd;clip-rule:evenodd;"
   id="svg4"
   sodipodi:docname="us.svg"
   inkscape:version="1.3.2 (091e20e, 2023-11-25, custom)"
   xmlns:inkscape="http://www.inkscape.org/namespaces/inkscape"
   xmlns:sodipodi="http://sodipodi.sourceforge.net/DTD/sodipodi-0.dtd"
   xmlns="http://www.w3.org/2000/svg"
   xmlns:svg="http://www.w3.org/2000/svg"><defs
   id="defs4" /><sodipodi:namedview
   id="namedview4"
   pagecolor="#ffffff"
   bordercolor="#000000"
   borderopacity="0.25"
   inkscape:showpageshadow="2"
   inkscape:pageopacity="0.0"
   inkscape:pagecheckerboard="0"
   inkscape:deskcolor="#d1d1d1"
   inkscape:zoom="1.7104167"
   inkscape:cx="319.80512"
   inkscape:cy="240"
   inkscape:window-width="2560"
   inkscape:window-height="1017"
   inkscape:window-x="-8"
   inkscape:window-y="-8"
   inkscape:window-maximized="1"
   inkscape:current-layer="svg4" />
    <path
   d="M0,0L640,0L640,480L0,480"
   style="fill:rgb(189,61,68);fill-rule:nonzero;"
   id="path1" />
    <path
   d="M0,55.3L640,55.3M0,129L640,129M0,203L640,203M0,277L640,277M0,351L640,351M0,425L640,425"
   style="fill-rule:nonzero;stroke:white;stroke-width:37px;"
   id="path2" />
    <path
   d="M0,0L364.8,0L364.8,258.5L0,258.5"
   style="fill:rgb(25,47,93);fill-rule:nonzero;"
   id="path3" />
    <g
   transform="matrix(1.4495402,0,0,1.4495402,-77.050307,-64.041871)"
   id="g4">
        <path
   d="m 178.988,57.896 18.728,57.639 h 60.606 l -49.031,35.624 18.728,57.639 -49.031,-35.623 -49.031,35.623 18.728,-57.639 -49.031,-35.624 h 60.606 z"
   style="fill:#ebebeb"
   id="path4" />
    </g>
</svg>
