<?xml version="1.0" encoding="UTF-8" standalone="no"?>
<!-- Created with Inkscape (http://www.inkscape.org/) -->

<svg
   width="143.7545mm"
   height="64.275688mm"
   viewBox="0 0 509.36634 227.7485"
   id="svg7212"
   version="1.1"
   inkscape:version="1.3.2 (091e20e, 2023-11-25, custom)"
   sodipodi:docname="logo-slim-white.svg"
   xmlns:inkscape="http://www.inkscape.org/namespaces/inkscape"
   xmlns:sodipodi="http://sodipodi.sourceforge.net/DTD/sodipodi-0.dtd"
   xmlns="http://www.w3.org/2000/svg"
   xmlns:svg="http://www.w3.org/2000/svg"
   xmlns:rdf="http://www.w3.org/1999/02/22-rdf-syntax-ns#"
   xmlns:cc="http://creativecommons.org/ns#"
   xmlns:dc="http://purl.org/dc/elements/1.1/">
  <title
     id="title7546">Flisol</title>
  <defs
     id="defs7214">
    <linearGradient
       id="linearGradient11737">
      <stop
         id="stop11739"
         offset="0"
         style="stop-color:#ffffff;stop-opacity:0;" />
      <stop
         style="stop-color:#0046af;stop-opacity:0;"
         offset="0.7044031"
         id="stop11741" />
      <stop
         style="stop-color:#0044ab;stop-opacity:0.42352942;"
         offset="0.86842364"
         id="stop11743" />
      <stop
         id="stop11745"
         offset="0.95386213"
         style="stop-color:#003996;stop-opacity:0.64999998;" />
      <stop
         id="stop11747"
         offset="1"
         style="stop-color:#002c80;stop-opacity:1;" />
    </linearGradient>
    <linearGradient
       id="linearGradient11729">
      <stop
         style="stop-color:#5bcaff;stop-opacity:1;"
         offset="0"
         id="stop11731" />
      <stop
         style="stop-color:#0071de;stop-opacity:1;"
         offset="1"
         id="stop11733" />
    </linearGradient>
    <linearGradient
       id="linearGradient5073">
      <stop
         style="stop-color:#ffffff;stop-opacity:1;"
         offset="0"
         id="stop5075" />
      <stop
         style="stop-color:#ffffff;stop-opacity:0;"
         offset="1"
         id="stop5077" />
    </linearGradient>
  </defs>
  <sodipodi:namedview
     id="base"
     pagecolor="#ffffff"
     bordercolor="#666666"
     borderopacity="1.0"
     inkscape:pageopacity="0.0"
     inkscape:pageshadow="2"
     inkscape:zoom="1.979899"
     inkscape:cx="246.47722"
     inkscape:cy="57.831233"
     inkscape:document-units="px"
     inkscape:current-layer="layer1"
     showgrid="false"
     fit-margin-top="0"
     fit-margin-left="0"
     fit-margin-right="0"
     fit-margin-bottom="0"
     inkscape:window-width="2560"
     inkscape:window-height="1017"
     inkscape:window-x="-8"
     inkscape:window-y="-8"
     inkscape:window-maximized="1"
     inkscape:showpageshadow="2"
     inkscape:pagecheckerboard="0"
     inkscape:deskcolor="#d1d1d1" />
  <metadata
     id="metadata7217">
    <rdf:RDF>
      <cc:Work
         rdf:about="">
        <dc:format>image/svg+xml</dc:format>
        <dc:type
           rdf:resource="http://purl.org/dc/dcmitype/StillImage" />
        <dc:title>Flisol</dc:title>
        <cc:license
           rdf:resource="http://creativecommons.org/licenses/by/3.0/" />
        <dc:date>5/febrero/2015</dc:date>
        <dc:creator>
          <cc:Agent>
            <dc:title>Xavier Araque</dc:title>
          </cc:Agent>
        </dc:creator>
        <dc:rights>
          <cc:Agent>
            <dc:title>CC</dc:title>
          </cc:Agent>
        </dc:rights>
        <dc:publisher>
          <cc:Agent>
            <dc:title>Inkscape</dc:title>
          </cc:Agent>
        </dc:publisher>
        <dc:source>Flisol</dc:source>
        <dc:language>ES</dc:language>
        <dc:subject>
          <rdf:Bag>
            <rdf:li>Logo Flisol 2015</rdf:li>
          </rdf:Bag>
        </dc:subject>
        <dc:description>Logo realizado para el refrescamiento del Flisol 2015

https://www.loomio.org/d/dWQYBfTA/votacion-logo</dc:description>
      </cc:Work>
      <cc:License
         rdf:about="http://creativecommons.org/licenses/by/3.0/">
        <cc:permits
           rdf:resource="http://creativecommons.org/ns#Reproduction" />
        <cc:permits
           rdf:resource="http://creativecommons.org/ns#Distribution" />
        <cc:requires
           rdf:resource="http://creativecommons.org/ns#Notice" />
        <cc:requires
           rdf:resource="http://creativecommons.org/ns#Attribution" />
        <cc:permits
           rdf:resource="http://creativecommons.org/ns#DerivativeWorks" />
      </cc:License>
    </rdf:RDF>
  </metadata>
  <g
     inkscape:label="Capa 1"
     inkscape:groupmode="layer"
     id="layer1"
     transform="translate(-151.03118,-252.14253)">
    <path
       id="path20109"
       style="color:#000000;display:inline;overflow:visible;visibility:visible;fill:#ffffff;fill-opacity:1;fill-rule:nonzero;stroke:none;stroke-width:2.34699;marker:none;enable-background:accumulate"
       d="M 556.74529 277.08882 C 555.39263 276.9632 554.02036 277.38212 552.8012 278.44563 L 532.73833 301.48396 C 530.72973 303.62738 530.23785 305.98962 532.22747 308.70564 C 539.84826 317.41739 548.29497 323.76057 548.29497 323.76057 C 549.80039 324.79854 551.34403 324.52264 552.91656 323.26802 L 563.03863 312.7834 C 564.75273 310.77095 564.24218 309.06485 562.67608 307.50264 L 551.82891 297.08943 L 550.77239 298.14045 L 560.06133 310.3719 L 550.40069 320.45186 L 536.34734 306.01582 L 556.82037 284.39473 L 580.73394 310.2657 L 557.64617 333.49263 A 46.820286 46.820286 0 0 0 526.28753 319.62239 L 524.85747 278.40718 C 524.85747 278.40718 520.35124 277.10817 516.23504 277.11445 C 513.03353 277.11934 510.06759 277.91335 509.64324 280.72346 C 508.6732 287.14664 519.82207 284.88911 519.82207 284.88911 L 522.92571 319.67549 A 46.820286 46.820286 0 0 0 499.88738 326.54011 L 473.89007 301.67805 C 472.62861 300.27609 470.54455 299.5278 468.46282 299.4936 C 466.38109 299.45941 464.30217 300.13931 463.05022 301.59016 L 436.55303 329.85615 C 434.32982 332.1319 433.8749 335.18517 436.00188 337.62349 L 459.04204 357.68635 C 461.18554 359.69499 463.54591 360.18684 466.26189 358.19722 C 474.97373 350.57643 481.31866 342.12971 481.31866 342.12971 C 482.35663 340.62429 482.0788 339.08066 480.82427 337.50813 L 470.34148 327.38606 C 468.32898 325.67196 466.62119 326.18251 465.05889 327.74861 L 454.64751 338.59578 L 455.69671 339.6523 L 467.92998 330.36336 L 478.00994 340.024 L 463.57207 354.07734 L 441.95281 333.60432 L 467.82378 309.69075 L 491.48467 333.21065 A 46.820286 46.820286 0 0 0 477.68767 364.11885 L 435.96343 365.56721 C 435.96343 365.56721 431.85654 379.8115 438.27972 380.78145 C 444.70286 381.75149 442.4472 370.60261 442.4472 370.60261 L 477.60162 367.46602 A 46.820286 46.820286 0 0 0 484.23736 390.39082 L 459.23431 416.53462 C 456.4303 419.05744 456.24475 424.87244 459.14641 427.37629 L 487.41241 453.87166 C 489.68811 456.09483 492.74333 456.54982 495.18157 454.4228 L 515.24444 431.38264 C 517.25308 429.23913 517.74493 426.87881 515.7553 424.16279 C 508.13451 415.45095 499.68597 409.10603 499.68597 409.10603 C 498.18056 408.06806 496.637 408.34589 495.06438 409.60042 L 484.94414 420.0832 C 483.23017 422.09574 483.73876 423.80351 485.30486 425.3658 L 496.15386 435.77717 L 497.21038 434.72798 L 487.91961 422.4947 L 497.58208 412.41475 L 511.6336 426.85261 L 491.16241 448.47188 L 467.24883 422.6009 L 490.80535 398.90156 A 46.820286 46.820286 0 0 0 521.68792 413.02632 L 523.12347 454.46126 C 523.12347 454.46126 537.36775 458.56815 538.3377 452.14497 C 539.30773 445.72183 528.1607 447.97749 528.1607 447.97749 L 525.0534 413.16548 A 46.820286 46.820286 0 0 0 548.30047 406.52424 L 574.0927 431.19038 C 576.61561 433.99439 582.42865 434.17997 584.93255 431.27827 L 611.42974 403.01228 C 613.65295 400.73654 614.10604 397.68323 611.97906 395.24495 L 588.94073 375.18208 C 587.86902 374.17776 586.74175 373.55145 585.54412 373.4261 C 584.34649 373.30075 583.07889 373.67641 581.72088 374.67122 C 573.00914 382.29201 566.66412 390.73872 566.66412 390.73872 C 565.62615 392.24414 565.90205 393.78772 567.15667 395.3603 L 577.64129 405.48054 C 579.65373 407.19464 581.35984 406.68589 582.92205 405.11983 L 593.33526 394.27083 L 592.28423 393.21431 L 580.05279 402.50508 L 569.97283 392.8426 L 584.40887 378.79109 L 606.02996 399.26228 L 580.15899 423.17586 L 556.81487 399.9709 A 46.820286 46.820286 0 0 0 570.99822 368.72395 L 612.01751 367.30122 C 612.01751 367.30122 616.1244 353.05694 609.70122 352.08699 C 609.5005 352.05667 609.30855 352.03758 609.12444 352.03023 C 603.41723 351.80218 605.53558 362.26399 605.53558 362.26399 L 571.13921 365.33467 A 46.820286 46.820286 0 0 0 564.25994 341.93928 L 588.74847 316.33198 C 591.55235 313.8091 591.73801 307.99603 588.83636 305.49214 L 560.56853 278.99495 C 559.43074 277.88334 558.09796 277.21444 556.74529 277.08882 z M 507.37456 293.3907 A 6.687932 4.567368 25.14187 0 0 503.46526 295.55867 A 6.687932 4.567368 25.14187 0 0 507.57964 302.53499 A 6.687932 4.567368 25.14187 0 0 515.57403 301.24226 A 6.687932 4.567368 25.14187 0 0 511.45965 294.26594 A 6.687932 4.567368 25.14187 0 0 507.37456 293.3907 z M 512.24334 305.81624 A 6.687932 4.567368 25.14187 0 0 508.33587 307.98604 A 6.687932 4.567368 25.14187 0 0 512.44842 314.96052 A 6.687932 4.567368 25.14187 0 0 520.44463 313.6678 A 6.687932 4.567368 25.14187 0 0 516.33025 306.69148 A 6.687932 4.567368 25.14187 0 0 512.24334 305.81624 z M 293.47076 317.54963 A 6.4167736 6.4167736 0 0 0 287.12981 324.06087 L 287.12981 408.80208 A 6.4251709 6.4251709 0 0 0 299.98015 408.80208 L 299.98015 324.06087 A 6.4167736 6.4167736 0 0 0 293.47076 317.54963 z M 248.01482 317.86091 A 6.4167736 6.4167736 0 0 0 241.67388 324.37214 L 241.67388 390.519 C 241.67388 404.07987 252.7937 415.19978 266.35467 415.19978 L 277.7896 415.19978 A 6.4167736 6.4167736 0 1 0 277.7896 402.37874 L 266.35467 402.37874 C 259.68088 402.37874 254.49493 397.19279 254.49493 390.519 L 254.49493 324.37214 A 6.4167736 6.4167736 0 0 0 248.01482 317.86091 z M 417.01751 317.86091 A 6.4167736 6.4167736 0 0 0 410.70586 324.37214 L 410.70586 390.519 C 410.70586 404.07987 421.79822 415.19978 435.35918 415.19978 L 446.79412 415.19978 A 6.4167736 6.4167736 0 1 0 446.79412 402.37874 L 435.35918 402.37874 C 428.6853 402.37874 423.52874 397.19279 423.52874 390.519 L 423.52874 324.37214 A 6.4167736 6.4167736 0 0 0 417.01751 317.86091 z M 220.89873 317.97444 C 207.33785 317.97444 196.21795 329.06679 196.21795 342.62776 L 196.21795 357.96834 A 6.4167736 6.4167736 0 0 0 196.21795 370.56416 L 196.21795 408.80208 A 6.4167736 6.4167736 0 1 0 209.03899 408.80208 L 209.03899 370.70515 L 229.13482 370.70515 A 6.4251709 6.4251709 0 0 0 229.13482 357.85481 L 209.03899 357.85481 L 209.03899 342.62776 C 209.03899 335.9538 214.22484 330.79732 220.89873 330.79732 L 232.30437 330.79732 A 6.4167736 6.4167736 0 1 0 232.30437 317.97444 L 220.89873 317.97444 z M 323.95415 318.76729 L 323.64287 318.79475 C 323.64287 318.79475 318.42608 319.33617 313.226 322.5594 C 308.02602 325.78263 302.49969 332.57282 302.49969 342.571 C 302.49969 351.79289 305.59107 358.75683 309.94292 363.45967 C 314.29478 368.1624 319.33705 370.79756 323.3316 373.4499 C 327.86886 376.46273 332.10977 378.94332 334.794 381.48823 C 337.47832 384.03334 338.7564 386.03895 338.7564 390.09419 C 338.7564 398.49041 332.42835 402.99946 327.88909 402.99946 C 319.96666 402.99946 312.17864 402.49043 312.17864 402.49043 A 5.9843835 5.9843835 0 0 0 311.41509 414.4344 C 311.41509 414.4344 319.46851 414.94526 327.88909 414.94526 C 339.69304 414.94526 350.7022 404.54758 350.7022 390.09419 C 350.7022 382.72471 347.24664 376.79596 343.03191 372.79988 C 338.81709 368.8037 334.01129 366.18096 329.95452 363.48713 C 325.35494 360.43301 321.30012 358.12639 318.71734 355.33528 C 316.13465 352.54427 314.44366 349.41906 314.44366 342.571 C 314.44366 336.49907 316.82328 334.40532 319.53948 332.72175 C 322.14291 331.10801 324.61938 330.74115 324.83123 330.71126 L 340.65337 330.71126 A 5.9784307 5.9784307 0 1 0 340.65337 318.76729 L 324.2929 318.76729 L 323.95415 318.76729 z M 501.82647 333.02937 C 502.30209 333.00997 502.81869 333.06424 503.34991 333.16487 C 503.88112 333.2655 504.42704 333.41324 504.96123 333.58235 C 506.02962 333.92056 507.05127 334.34341 507.81585 334.64619 C 508.19715 334.72484 508.53206 334.88169 508.83208 335.09663 C 508.83364 335.09775 508.83602 335.09734 508.83758 335.09846 C 509.05156 335.25239 509.24167 335.44506 509.41985 335.65693 L 509.42351 335.6606 C 509.81309 336.12506 510.11765 336.72292 510.372 337.39094 C 510.40768 337.48503 510.43733 337.58875 510.47088 337.68574 C 510.69663 338.33589 510.88325 339.03683 511.03667 339.76948 C 511.04391 339.80428 511.05335 339.83714 511.06048 339.87202 C 511.39466 341.49834 511.60816 343.21666 511.91924 344.56685 C 512.25432 345.55665 512.71028 345.93669 513.21929 345.98775 C 513.47379 346.01326 513.74181 345.95668 514.01397 345.85225 C 514.83044 345.53894 515.68684 344.79864 516.35223 344.57234 C 516.57402 344.49691 516.77492 344.47833 516.94549 344.5522 C 517.11606 344.62607 517.25718 344.79205 517.35931 345.08504 C 517.18582 345.42246 517.09262 345.71734 517.06084 345.98225 C 517.06008 345.98865 517.06154 345.9942 517.06084 346.00056 C 517.03275 346.25779 517.0622 346.48733 517.13592 346.69636 C 517.16104 346.76761 517.21501 346.82689 517.24944 346.89412 C 517.3188 347.02943 517.38262 347.16757 517.48199 347.29146 C 517.54632 347.37166 517.6284 347.44818 517.70171 347.52583 C 517.79983 347.62973 517.89186 347.73586 518.00017 347.83894 C 518.0014 347.8401 518.00261 347.84144 518.00384 347.8426 C 518.72471 348.5282 519.59366 349.24241 519.62249 350.61116 C 519.4937 351.99956 521.27422 353.71678 521.77581 354.53511 C 523.07536 354.16349 524.96571 352.43957 525.29693 351.34907 C 527.27433 351.27371 526.15565 353.81017 527.06573 353.81917 C 527.73126 353.82579 528.03547 351.83504 528.25774 351.90754 C 531.90875 353.08218 534.05948 353.58663 537.4826 355.43049 C 539.40165 357.90151 541.60101 360.19019 544.0927 362.03694 L 544.09454 362.03877 C 544.09631 362.04008 544.09826 362.04112 544.10003 362.04243 C 544.26511 362.16469 544.43221 362.28308 544.59991 362.40132 C 544.6182 362.41416 544.63653 362.42693 544.65484 362.43977 L 544.65667 362.43794 C 546.10875 363.45611 547.65183 364.33187 549.30389 364.99043 C 552.86945 365.53097 551.94634 370.09046 550.08941 372.05464 C 547.66549 374.26852 548.06162 378.06322 546.74224 380.29622 C 545.01769 381.48153 543.31812 383.36045 541.86248 385.11006 C 541.83207 385.14661 541.8158 385.16699 541.78558 385.20344 C 540.76379 386.43614 539.84652 387.6107 539.21111 388.36567 C 537.84084 389.61191 536.30081 390.81626 534.79461 392.07722 C 534.50891 392.31662 534.219 392.54396 533.93767 392.7895 L 533.93951 392.79133 C 532.06538 394.42695 530.32013 396.21644 529.14947 398.4438 C 526.83931 400.60488 527.06621 403.69088 526.49261 406.55903 C 523.63113 406.0396 524.20366 400.46792 524.60662 397.81575 C 525.51236 394.07698 525.8196 390.11535 527.08953 386.52913 C 529.23847 381.57206 526.53213 376.35454 523.67828 372.41536 C 522.26797 369.39855 517.81154 367.06312 519.98321 363.21614 C 521.06583 360.72366 523.55784 357.49335 521.57256 354.91231 C 519.06502 354.24653 518.12703 351.1867 516.08306 349.66084 L 516.09038 349.65352 C 515.8614 349.48255 515.62246 349.32412 515.36162 349.19758 C 514.61627 349.00643 513.83617 348.85123 513.05633 348.67756 C 512.27648 348.5039 511.49753 348.31102 510.75286 348.04768 C 509.63585 347.65268 508.59741 347.09648 507.75542 346.19832 C 507.47476 345.89893 507.21541 345.56233 506.98272 345.18025 C 506.3721 344.44797 505.88273 343.64701 505.46661 342.80537 C 505.05049 341.96373 504.70683 341.0807 504.39178 340.18696 C 504.07672 339.29323 503.78917 338.38937 503.48174 337.50081 C 503.17431 336.61224 502.84777 335.73966 502.45452 334.91353 C 502.11912 334.56173 501.84777 334.34519 501.63055 334.23787 C 501.41332 334.13055 501.24988 334.13198 501.1325 334.21773 C 501.01512 334.30347 500.94315 334.47373 500.90728 334.70112 C 500.87141 334.92852 500.87265 335.21297 500.89996 335.53059 C 500.95455 336.16583 501.11648 336.93033 501.31377 337.61799 C 501.51107 338.30566 501.74302 338.91704 501.93633 339.2458 C 502.18631 339.828 502.36643 340.18074 502.51678 340.37556 C 502.08116 339.97496 501.70375 339.49208 501.38702 338.95649 C 501.07028 338.42092 500.81449 337.83321 500.6198 337.22432 C 500.42512 336.61543 500.29192 335.9845 500.22246 335.36397 C 500.15301 334.74344 500.14702 334.13271 500.20599 333.56221 C 500.41892 333.38736 500.66579 333.26023 500.93841 333.17402 C 501.21102 333.08781 501.50937 333.04252 501.82647 333.02937 z M 524.33013 341.34968 C 525.68553 341.33421 528.53758 341.52499 529.05242 343.23201 C 528.61187 343.61414 526.1817 342.41515 524.72564 342.39155 C 523.18064 342.36692 521.7769 342.79574 521.4627 342.69734 C 520.93919 342.5008 522.88455 341.99991 523.61602 341.38447 C 523.59326 341.38182 523.87833 341.35484 524.33013 341.34968 z M 371.6458 342.82551 C 361.61383 342.82551 353.36272 351.10583 353.36272 361.13789 L 353.36272 396.8874 C 353.36272 406.91947 361.61383 415.19978 371.6458 415.19978 L 388.54461 415.19978 C 398.57659 415.19978 406.85699 406.91956 406.85699 396.8874 L 406.85699 361.13789 C 406.85699 351.10583 398.57659 342.82551 388.54461 342.82551 L 371.6458 342.82551 z M 532.07549 344.72615 C 533.53517 344.69445 531.72858 346.09491 534.47784 346.18001 C 535.04836 346.77077 534.05754 346.74745 532.44537 346.84285 C 531.30931 346.23601 531.19956 346.4261 529.56878 345.65816 C 531.34257 345.82342 531.05228 344.74785 532.07549 344.72615 z M 593.69964 345.61238 A 4.567368 6.687932 25.14187 0 0 587.8897 350.02156 A 4.567368 6.687932 25.14187 0 0 589.18426 358.01777 A 4.567368 6.687932 25.14187 0 0 596.15874 353.90339 A 4.567368 6.687932 25.14187 0 0 594.86602 345.90901 A 4.567368 6.687932 25.14187 0 0 593.69964 345.61238 z M 536.87835 346.6689 C 537.11373 346.60339 537.38362 346.85109 537.40203 347.02412 C 537.28111 347.23769 536.66667 347.29166 536.66595 346.85383 C 536.72636 346.74804 536.79989 346.69073 536.87835 346.6689 z M 581.27227 350.48298 A 4.567368 6.687932 25.14187 0 0 575.46416 354.89216 A 4.567368 6.687932 25.14187 0 0 576.75689 362.88655 A 4.567368 6.687932 25.14187 0 0 583.73321 358.77217 A 4.567368 6.687932 25.14187 0 0 582.44048 350.77778 A 4.567368 6.687932 25.14187 0 0 581.27227 350.48298 z M 371.6458 355.64839 L 388.54461 355.64839 C 391.6895 355.64839 394.00664 357.99291 394.00664 361.13789 L 394.00664 396.8874 C 394.00664 400.03238 391.6895 402.37874 388.54461 402.37874 L 371.6458 402.37874 C 368.50093 402.37874 366.18377 400.03238 366.18377 396.8874 L 366.18377 361.13789 C 366.18377 357.99291 368.50093 355.64839 371.6458 355.64839 z M 470.05767 369.68525 A 4.567368 6.687932 25.141871 0 0 464.24956 374.09443 A 4.567368 6.687932 25.141871 0 0 465.54229 382.08882 A 4.567368 6.687932 25.141871 0 0 472.51861 377.97627 A 4.567368 6.687932 25.141871 0 0 471.22588 369.98005 A 4.567368 6.687932 25.141871 0 0 470.05767 369.68525 z M 457.63213 374.55403 A 4.567368 6.687932 25.141871 0 0 451.8222 378.96504 A 4.567368 6.687932 25.141871 0 0 453.11492 386.95942 A 4.567368 6.687932 25.141871 0 0 460.09124 382.84504 A 4.567368 6.687932 25.141871 0 0 458.79851 374.85066 A 4.567368 6.687932 25.141871 0 0 457.63213 374.55403 z M 531.44561 417.03084 A 6.687932 4.567368 25.141871 0 0 527.53814 419.1988 A 6.687932 4.567368 25.141871 0 0 531.65252 426.17512 A 6.687932 4.567368 25.141871 0 0 539.6469 424.8824 A 6.687932 4.567368 25.141871 0 0 535.53252 417.90608 A 6.687932 4.567368 25.141871 0 0 531.44561 417.03084 z M 536.31621 429.4582 A 6.687932 4.567368 25.141871 0 0 532.40691 431.62617 A 6.687932 4.567368 25.141871 0 0 536.52129 438.60249 A 6.687932 4.567368 25.141871 0 0 544.51568 437.30977 A 6.687932 4.567368 25.141871 0 0 540.40313 430.33345 A 6.687932 4.567368 25.141871 0 0 536.31621 429.4582 z " />
  </g>
</svg>
