<?xml version="1.0" encoding="UTF-8" standalone="no"?>
<!-- Created with Inkscape (http://www.inkscape.org/) -->

<svg
   width="143.7545mm"
   height="64.275688mm"
   viewBox="0 0 509.36634 227.7485"
   id="svg7212"
   version="1.1"
   inkscape:version="1.3.2 (091e20e, 2023-11-25, custom)"
   sodipodi:docname="logo-slim.svg"
   xmlns:inkscape="http://www.inkscape.org/namespaces/inkscape"
   xmlns:sodipodi="http://sodipodi.sourceforge.net/DTD/sodipodi-0.dtd"
   xmlns:xlink="http://www.w3.org/1999/xlink"
   xmlns="http://www.w3.org/2000/svg"
   xmlns:svg="http://www.w3.org/2000/svg"
   xmlns:rdf="http://www.w3.org/1999/02/22-rdf-syntax-ns#"
   xmlns:cc="http://creativecommons.org/ns#"
   xmlns:dc="http://purl.org/dc/elements/1.1/">
  <title
     id="title7546">Flisol</title>
  <defs
     id="defs7214">
    <linearGradient
       id="linearGradient5"
       inkscape:collect="always">
      <stop
         style="stop-color:#9fc700;stop-opacity:1;"
         offset="0"
         id="stop5" />
      <stop
         style="stop-color:#9fc700;stop-opacity:0;"
         offset="1"
         id="stop6" />
    </linearGradient>
    <linearGradient
       id="linearGradient3"
       inkscape:collect="always">
      <stop
         style="stop-color:#3aaaf3;stop-opacity:1;"
         offset="0"
         id="stop3" />
      <stop
         style="stop-color:#3aaaf3;stop-opacity:0;"
         offset="1"
         id="stop4" />
    </linearGradient>
    <linearGradient
       id="linearGradient1"
       inkscape:collect="always">
      <stop
         style="stop-color:#fea842;stop-opacity:1;"
         offset="0"
         id="stop1" />
      <stop
         style="stop-color:#fea842;stop-opacity:0;"
         offset="1"
         id="stop2" />
    </linearGradient>
    <linearGradient
       id="linearGradient11737">
      <stop
         id="stop11739"
         offset="0"
         style="stop-color:#ffffff;stop-opacity:0;" />
      <stop
         style="stop-color:#0046af;stop-opacity:0;"
         offset="0.7044031"
         id="stop11741" />
      <stop
         style="stop-color:#0044ab;stop-opacity:0.42352942;"
         offset="0.86842364"
         id="stop11743" />
      <stop
         id="stop11745"
         offset="0.95386213"
         style="stop-color:#003996;stop-opacity:0.64999998;" />
      <stop
         id="stop11747"
         offset="1"
         style="stop-color:#002c80;stop-opacity:1;" />
    </linearGradient>
    <linearGradient
       id="linearGradient11729">
      <stop
         style="stop-color:#5bcaff;stop-opacity:1;"
         offset="0"
         id="stop11731" />
      <stop
         style="stop-color:#0071de;stop-opacity:1;"
         offset="1"
         id="stop11733" />
    </linearGradient>
    <linearGradient
       id="linearGradient5073">
      <stop
         style="stop-color:#ffffff;stop-opacity:1;"
         offset="0"
         id="stop5075" />
      <stop
         style="stop-color:#ffffff;stop-opacity:0;"
         offset="1"
         id="stop5077" />
    </linearGradient>
    <linearGradient
       inkscape:collect="always"
       xlink:href="#linearGradient1"
       id="linearGradient2"
       x1="430.87497"
       y1="346.37082"
       x2="193.647"
       y2="453.85736"
       gradientUnits="userSpaceOnUse" />
    <linearGradient
       inkscape:collect="always"
       xlink:href="#linearGradient3"
       id="linearGradient4"
       x1="569.61316"
       y1="321.27484"
       x2="478.6994"
       y2="412.66208"
       gradientUnits="userSpaceOnUse" />
    <linearGradient
       inkscape:collect="always"
       xlink:href="#linearGradient5"
       id="linearGradient6"
       x1="502.37485"
       y1="404.61246"
       x2="523.6828"
       y2="362.47012"
       gradientUnits="userSpaceOnUse" />
  </defs>
  <sodipodi:namedview
     id="base"
     pagecolor="#ffffff"
     bordercolor="#666666"
     borderopacity="1.0"
     inkscape:pageopacity="0.0"
     inkscape:pageshadow="2"
     inkscape:zoom="1.979899"
     inkscape:cx="246.47722"
     inkscape:cy="57.831233"
     inkscape:document-units="px"
     inkscape:current-layer="layer1"
     showgrid="false"
     fit-margin-top="0"
     fit-margin-left="0"
     fit-margin-right="0"
     fit-margin-bottom="0"
     inkscape:window-width="2560"
     inkscape:window-height="1017"
     inkscape:window-x="-8"
     inkscape:window-y="-8"
     inkscape:window-maximized="1"
     inkscape:showpageshadow="2"
     inkscape:pagecheckerboard="0"
     inkscape:deskcolor="#d1d1d1" />
  <metadata
     id="metadata7217">
    <rdf:RDF>
      <cc:Work
         rdf:about="">
        <dc:format>image/svg+xml</dc:format>
        <dc:type
           rdf:resource="http://purl.org/dc/dcmitype/StillImage" />
        <dc:title>Flisol</dc:title>
        <cc:license
           rdf:resource="http://creativecommons.org/licenses/by/4.0/" />
        <dc:date>5/febrero/2015</dc:date>
        <dc:creator>
          <cc:Agent>
            <dc:title>Xavier Araque</dc:title>
          </cc:Agent>
        </dc:creator>
        <dc:rights>
          <cc:Agent>
            <dc:title>CC</dc:title>
          </cc:Agent>
        </dc:rights>
        <dc:publisher>
          <cc:Agent>
            <dc:title>Inkscape</dc:title>
          </cc:Agent>
        </dc:publisher>
        <dc:source>Flisol</dc:source>
        <dc:language>ES</dc:language>
        <dc:subject>
          <rdf:Bag>
            <rdf:li>Logo Flisol 2015</rdf:li>
          </rdf:Bag>
        </dc:subject>
        <dc:description>Logo realizado para el refrescamiento del Flisol 2015

https://www.loomio.org/d/dWQYBfTA/votacion-logo</dc:description>
      </cc:Work>
      <cc:License
         rdf:about="http://creativecommons.org/licenses/by/3.0/">
        <cc:permits
           rdf:resource="http://creativecommons.org/ns#Reproduction" />
        <cc:permits
           rdf:resource="http://creativecommons.org/ns#Distribution" />
        <cc:requires
           rdf:resource="http://creativecommons.org/ns#Notice" />
        <cc:requires
           rdf:resource="http://creativecommons.org/ns#Attribution" />
        <cc:permits
           rdf:resource="http://creativecommons.org/ns#DerivativeWorks" />
      </cc:License>
    </rdf:RDF>
  </metadata>
  <g
     inkscape:label="Capa 1"
     inkscape:groupmode="layer"
     id="layer1"
     transform="translate(-151.03118,-252.14253)">
    <path
       id="path20109"
       style="color:#000000;display:inline;overflow:visible;visibility:visible;fill:#ff8e2a;fill-opacity:1;fill-rule:nonzero;stroke:none;stroke-width:2.34699;marker:none;enable-background:accumulate"
       d="M 556.74529 277.08882 C 555.39263 276.9632 554.02036 277.38212 552.8012 278.44563 L 532.73833 301.48396 C 530.7297 303.62738 530.23785 305.98962 532.22747 308.70564 C 539.84829 317.41742 548.29497 323.76057 548.29497 323.76057 C 549.80039 324.79854 551.34403 324.52264 552.91656 323.26802 L 563.03863 312.7834 C 564.75273 310.77095 564.24218 309.06485 562.67608 307.50264 L 551.82891 297.08943 L 550.77239 298.14045 L 560.06133 310.3719 L 550.40069 320.45186 L 536.34734 306.01582 L 556.82037 284.39473 L 580.73394 310.2657 L 536.86187 354.40327 L 544.56329 362.53499 L 588.74847 316.33198 C 591.55238 313.80907 591.73804 307.99603 588.83636 305.49214 L 560.56853 278.99495 C 559.43071 277.88334 558.09796 277.21444 556.74529 277.08882 z M 516.23504 277.11445 C 513.03353 277.11934 510.06759 277.91332 509.64324 280.72346 C 508.6732 287.14664 519.82207 284.88911 519.82207 284.88911 L 523.92181 330.83211 L 526.6867 331.12874 L 524.85747 278.40718 C 524.85747 278.40718 520.35127 277.10817 516.23504 277.11445 z M 507.37456 293.3907 A 6.687932 4.567368 25.14187 0 0 503.46526 295.55867 A 6.687932 4.567368 25.14187 0 0 507.57964 302.53499 A 6.687932 4.567368 25.14187 0 0 515.57403 301.24226 A 6.687932 4.567368 25.14187 0 0 511.45965 294.26594 A 6.687932 4.567368 25.14187 0 0 507.37456 293.3907 z M 468.46282 299.4936 C 466.38109 299.45941 464.30217 300.13931 463.05022 301.59016 L 436.55303 329.85615 C 434.32982 332.1319 433.87487 335.18517 436.00188 337.62349 L 459.04204 357.68635 C 461.18554 359.69499 463.54588 360.18684 466.26189 358.19722 C 474.97376 350.5764 481.31866 342.12971 481.31866 342.12971 C 482.35663 340.62429 482.0788 339.08066 480.82427 337.50813 L 470.34148 327.38606 C 468.32895 325.67196 466.62119 326.18251 465.05889 327.74861 L 454.64751 338.59578 L 455.69671 339.6523 L 467.92998 330.36336 L 478.00994 340.024 L 463.57207 354.07734 L 441.95281 333.60432 L 467.82378 309.69075 L 511.96136 353.56282 L 520.09307 345.86323 L 473.89007 301.67805 C 472.62861 300.27609 470.54455 299.5278 468.46282 299.4936 z M 512.24334 305.81624 A 6.687932 4.567368 25.14187 0 0 508.33587 307.98604 A 6.687932 4.567368 25.14187 0 0 512.44842 314.96052 A 6.687932 4.567368 25.14187 0 0 520.44463 313.6678 A 6.687932 4.567368 25.14187 0 0 516.33025 306.69148 A 6.687932 4.567368 25.14187 0 0 512.24334 305.81624 z M 593.69964 345.61238 A 4.567368 6.687932 25.14187 0 0 587.8897 350.02156 A 4.567368 6.687932 25.14187 0 0 589.18426 358.01777 A 4.567368 6.687932 25.14187 0 0 596.15874 353.90339 A 4.567368 6.687932 25.14187 0 0 594.86602 345.90901 A 4.567368 6.687932 25.14187 0 0 593.69964 345.61238 z M 581.27227 350.48298 A 4.567368 6.687932 25.14187 0 0 575.46416 354.89216 A 4.567368 6.687932 25.14187 0 0 576.75689 362.88655 A 4.567368 6.687932 25.14187 0 0 583.73321 358.77217 A 4.567368 6.687932 25.14187 0 0 582.44048 350.77778 A 4.567368 6.687932 25.14187 0 0 581.27227 350.48298 z M 609.12444 352.03023 C 603.4172 351.80218 605.53558 362.26399 605.53558 362.26399 L 559.59258 366.36555 L 559.29595 369.13045 L 612.01751 367.30122 C 612.01751 367.30122 616.1244 353.05694 609.70122 352.08699 C 609.5005 352.05667 609.30855 352.03758 609.12444 352.03023 z M 488.68499 363.73799 L 435.96343 365.56721 C 435.96343 365.56721 431.85654 379.8115 438.27972 380.78145 C 444.70289 381.75149 442.4472 370.60261 442.4472 370.60261 L 488.39019 366.50288 L 488.68499 363.73799 z M 470.05767 369.68525 A 4.567368 6.687932 25.141871 0 0 464.24956 374.09443 A 4.567368 6.687932 25.141871 0 0 465.54229 382.08882 A 4.567368 6.687932 25.141871 0 0 472.51861 377.97627 A 4.567368 6.687932 25.141871 0 0 471.22588 369.98005 A 4.567368 6.687932 25.141871 0 0 470.05767 369.68525 z M 503.41949 370.33162 L 459.23431 416.53462 C 456.4303 419.05744 456.24472 424.87241 459.14641 427.37629 L 487.41241 453.87166 C 489.68814 456.09486 492.74333 456.54982 495.18157 454.4228 L 515.24444 431.38264 C 517.25308 429.23913 517.74493 426.87881 515.7553 424.16279 C 508.13448 415.45092 499.68597 409.10603 499.68597 409.10603 C 498.18056 408.06806 496.637 408.34589 495.06438 409.60042 L 484.94414 420.0832 C 483.23014 422.09574 483.73876 423.80351 485.30486 425.3658 L 496.15386 435.77717 L 497.21038 434.72798 L 487.91961 422.4947 L 497.58208 412.41475 L 511.6336 426.85261 L 491.16241 448.47188 L 467.24883 422.6009 L 511.1209 378.46333 L 503.41949 370.33162 z M 585.54412 373.4261 C 584.34649 373.30075 583.07889 373.67641 581.72088 374.67122 C 573.00911 382.29204 566.66412 390.73872 566.66412 390.73872 C 565.62615 392.24414 565.90205 393.78769 567.15667 395.3603 L 577.64129 405.48054 C 579.65373 407.19464 581.35984 406.68592 582.92205 405.11983 L 593.33526 394.27083 L 592.28423 393.21431 L 580.05279 402.50508 L 569.97283 392.8426 L 584.40887 378.79109 L 606.02996 399.26228 L 580.15899 423.17586 L 536.02142 379.30379 L 527.8897 387.0052 L 574.0927 431.19038 C 576.61561 433.99439 582.42865 434.17997 584.93255 431.27827 L 611.42974 403.01228 C 613.65295 400.73654 614.10607 397.68326 611.97906 395.24495 L 588.94073 375.18208 C 587.86902 374.17776 586.74175 373.55145 585.54412 373.4261 z M 457.63213 374.55403 A 4.567368 6.687932 25.141871 0 0 451.8222 378.96504 A 4.567368 6.687932 25.141871 0 0 453.11492 386.95942 A 4.567368 6.687932 25.141871 0 0 460.09124 382.84504 A 4.567368 6.687932 25.141871 0 0 458.79851 374.85066 A 4.567368 6.687932 25.141871 0 0 457.63213 374.55403 z M 521.29607 401.7397 L 523.12347 454.46126 C 523.12347 454.46126 537.36775 458.56815 538.3377 452.14497 C 539.30773 445.7218 528.1607 447.97749 528.1607 447.97749 L 524.05913 402.0345 L 521.29607 401.7397 z M 531.44561 417.03084 A 6.687932 4.567368 25.141871 0 0 527.53814 419.1988 A 6.687932 4.567368 25.141871 0 0 531.65252 426.17512 A 6.687932 4.567368 25.141871 0 0 539.6469 424.8824 A 6.687932 4.567368 25.141871 0 0 535.53252 417.90608 A 6.687932 4.567368 25.141871 0 0 531.44561 417.03084 z M 536.31621 429.4582 A 6.687932 4.567368 25.141871 0 0 532.40691 431.62617 A 6.687932 4.567368 25.141871 0 0 536.52129 438.60249 A 6.687932 4.567368 25.141871 0 0 544.51568 437.30977 A 6.687932 4.567368 25.141871 0 0 540.40313 430.33345 A 6.687932 4.567368 25.141871 0 0 536.31621 429.4582 z " />
    <path
       style="color:#000000;font-style:normal;font-variant:normal;font-weight:normal;font-stretch:normal;font-size:medium;line-height:normal;font-family:Sans;-inkscape-font-specification:Sans;text-indent:0;text-align:start;text-decoration:none;text-decoration-line:none;letter-spacing:normal;word-spacing:normal;text-transform:none;writing-mode:lr-tb;direction:ltr;baseline-shift:baseline;text-anchor:start;display:inline;overflow:visible;visibility:visible;fill:#ff8e2a;fill-opacity:1;stroke:none;stroke-width:1.81146;marker:none;enable-background:accumulate"
       d="m 293.47046,317.55033 a 6.4167736,6.4167736 0 0 0 -6.34012,6.50995 v 84.74258 a 6.4250384,6.4250384 0 0 0 12.85007,0 v -84.74258 a 6.4167736,6.4167736 0 0 0 -6.50995,-6.50995 z m -45.45644,0.3113 a 6.4167736,6.4167736 0 0 0 -6.34012,6.51004 v 66.14672 c 0,13.56089 11.12022,24.6812 24.6812,24.6812 h 11.43487 a 6.4167736,6.4167736 0 1 0 0,-12.82172 H 266.3551 c -6.67379,0 -11.85938,-5.18568 -11.85938,-11.85948 v -66.14672 a 6.4167736,6.4167736 0 0 0 -6.4817,-6.51004 z m 169.00403,0 a 6.4167736,6.4167736 0 0 0 -6.31186,6.51004 v 66.14672 c 0,13.56089 11.09196,24.6812 24.65294,24.6812 H 446.794 a 6.4167736,6.4167736 0 1 0 0,-12.82172 h -11.43487 c -6.67389,0 -11.83113,-5.18568 -11.83113,-11.85948 v -66.14672 a 6.4167736,6.4167736 0 0 0 -6.50995,-6.51004 z m -196.11937,0.11322 c -13.5609,0 -24.6812,11.09196 -24.6812,24.65294 v 15.34084 a 6.4167736,6.4167736 0 0 0 0,12.59539 v 38.23884 a 6.4167736,6.4167736 0 1 0 12.82177,0 V 370.7055 h 20.09594 a 6.42504,6.42504 0 0 0 0,-12.85008 h -20.09594 v -15.22763 c 0,-6.67397 5.18553,-11.83112 11.85943,-11.83112 h 11.40657 a 6.4167736,6.4167736 0 1 0 0,-12.82182 z m 103.05538,0.79251 -0.31139,0.0281 c 0,0 -5.21584,0.54127 -10.41592,3.7645 -5.19999,3.22323 -10.72722,10.01278 -10.72722,20.01097 0,9.2219 3.09208,16.18562 7.44394,20.88846 4.35186,4.70274 9.39335,7.33896 13.3879,9.99131 4.53727,3.01283 8.7789,5.49345 11.46313,8.03837 2.68432,2.54511 3.96258,4.54922 3.96258,8.60446 0,8.39623 -6.32953,12.90668 -10.86879,12.90668 -7.92244,0 -15.70875,-0.50938 -15.70875,-0.50938 a 5.9843835,5.9843835 0 0 0 -0.76426,11.94425 c 0,0 8.05242,0.50957 16.47301,0.50957 11.80396,0 22.81313,-10.39772 22.81313,-24.85112 0,-7.36949 -3.45564,-13.29769 -7.67037,-17.29378 -4.21483,-3.99618 -9.01974,-6.61828 -13.07651,-9.31211 -4.59958,-3.05413 -8.654,-5.36048 -11.23679,-8.15159 -2.58269,-2.79101 -4.27388,-5.91705 -4.27388,-12.76512 0,-6.07193 2.37855,-8.16626 5.09475,-9.84983 2.60343,-1.61375 5.08097,-1.97966 5.29282,-2.00955 h 15.82206 a 5.9784307,5.9784307 0 1 0 0,-11.94444 h -16.35979 -0.33965 z m 47.69242,24.05861 c -10.03198,0 -18.28447,8.28066 -18.28447,18.31273 v 35.74807 c 0,10.03208 8.25249,18.31282 18.28447,18.31282 h 16.89761 c 10.03199,0 18.31273,-8.28065 18.31273,-18.31282 V 361.1387 c 0,-10.03207 -8.28074,-18.31273 -18.31273,-18.31273 z m 0,12.82173 h 16.89761 c 3.14489,0 5.46266,2.34602 5.46266,5.491 v 35.74807 c 0,3.14498 -2.31777,5.4911 -5.46266,5.4911 h -16.89761 c -3.14488,0 -5.46265,-2.34612 -5.46265,-5.4911 V 361.1387 c 0,-3.14498 2.31777,-5.491 5.46265,-5.491 z"
       id="path20219"
       inkscape:connector-curvature="0" />
    <path
       id="path20109-9"
       style="color:#000000;display:inline;overflow:visible;visibility:visible;fill:url(#linearGradient2);fill-opacity:1;fill-rule:nonzero;stroke:none;stroke-width:2.34699;marker:none;enable-background:accumulate"
       d="M 556.74529 277.08882 C 555.39263 276.9632 554.02036 277.38212 552.8012 278.44563 L 532.73833 301.48396 C 530.72971 303.62738 530.23785 305.98962 532.22747 308.70564 C 539.84828 317.41741 548.29497 323.76057 548.29497 323.76057 C 549.80039 324.79854 551.34403 324.52264 552.91656 323.26802 L 563.03863 312.7834 C 564.75273 310.77095 564.24218 309.06485 562.67608 307.50264 L 551.82891 297.08943 L 550.77239 298.14045 L 560.06133 310.3719 L 550.40069 320.45186 L 536.34734 306.01582 L 556.82037 284.39473 L 580.73394 310.2657 L 536.86187 354.40327 L 544.56329 362.53499 L 588.74847 316.33198 C 591.55237 313.80908 591.73802 307.99603 588.83636 305.49214 L 560.56853 278.99495 C 559.43072 277.88334 558.09796 277.21444 556.74529 277.08882 z M 516.23504 277.11445 C 513.03353 277.11945 510.06759 277.91333 509.64324 280.72346 C 508.6732 287.14664 519.82207 284.88911 519.82207 284.88911 L 523.92181 330.83211 L 526.6867 331.12874 L 524.85747 278.40718 C 524.85747 278.40718 520.35126 277.10817 516.23504 277.11445 z M 507.37456 293.3907 A 6.687932 4.567368 25.14187 0 0 503.46526 295.55867 A 6.687932 4.567368 25.14187 0 0 507.57964 302.53499 A 6.687932 4.567368 25.14187 0 0 515.57403 301.24226 A 6.687932 4.567368 25.14187 0 0 511.45965 294.26594 A 6.687932 4.567368 25.14187 0 0 507.37456 293.3907 z M 468.46282 299.4936 C 466.38109 299.4594 464.30217 300.13931 463.05022 301.59016 L 436.55303 329.85615 C 434.32982 332.1319 433.87488 335.18517 436.00188 337.62349 L 459.04204 357.68635 C 461.18554 359.69499 463.54589 360.18684 466.26189 358.19722 C 474.97375 350.57641 481.31866 342.12971 481.31866 342.12971 C 482.35663 340.62429 482.0788 339.08066 480.82427 337.50813 L 470.34148 327.38606 C 468.32896 325.67196 466.62119 326.18251 465.05889 327.74861 L 454.64751 338.59578 L 455.69671 339.6523 L 467.92998 330.36336 L 478.00994 340.024 L 463.57207 354.07734 L 441.95281 333.60432 L 467.82378 309.69075 L 511.96136 353.56282 L 520.09307 345.86323 L 473.89007 301.67805 C 472.62861 300.27609 470.54455 299.5278 468.46282 299.4936 z M 512.24334 305.81624 A 6.687932 4.567368 25.14187 0 0 508.33587 307.98604 A 6.687932 4.567368 25.14187 0 0 512.44842 314.96052 A 6.687932 4.567368 25.14187 0 0 520.44463 313.6678 A 6.687932 4.567368 25.14187 0 0 516.33025 306.69148 A 6.687932 4.567368 25.14187 0 0 512.24334 305.81624 z M 293.47076 317.54963 A 6.4167736 6.4167736 0 0 0 287.12981 324.06087 L 287.12981 408.80208 A 6.4251709 6.4251709 0 0 0 299.98015 408.80208 L 299.98015 324.06087 A 6.4167736 6.4167736 0 0 0 293.47076 317.54963 z M 248.01482 317.86091 A 6.4167736 6.4167736 0 0 0 241.67388 324.37214 L 241.67388 390.519 C 241.67388 404.07987 252.7937 415.19978 266.35467 415.19978 L 277.7896 415.19978 A 6.4167736 6.4167736 0 1 0 277.7896 402.37874 L 266.35467 402.37874 C 259.68088 402.37874 254.49493 397.19279 254.49493 390.519 L 254.49493 324.37214 A 6.4167736 6.4167736 0 0 0 248.01482 317.86091 z M 417.01751 317.86091 A 6.4167736 6.4167736 0 0 0 410.70586 324.37214 L 410.70586 390.519 C 410.70586 404.07987 421.79822 415.19978 435.35918 415.19978 L 446.79412 415.19978 A 6.4167736 6.4167736 0 1 0 446.79412 402.37874 L 435.35918 402.37874 C 428.6853 402.37874 423.52874 397.19279 423.52874 390.519 L 423.52874 324.37214 A 6.4167736 6.4167736 0 0 0 417.01751 317.86091 z M 220.89873 317.97444 C 207.33785 317.97444 196.21795 329.06679 196.21795 342.62776 L 196.21795 357.96834 A 6.4167736 6.4167736 0 0 0 196.21795 370.56416 L 196.21795 408.80208 A 6.4167736 6.4167736 0 1 0 209.03899 408.80208 L 209.03899 370.70515 L 229.13482 370.70515 A 6.4251709 6.4251709 0 0 0 229.13482 357.85481 L 209.03899 357.85481 L 209.03899 342.62776 C 209.03899 335.9538 214.22484 330.79732 220.89873 330.79732 L 232.30437 330.79732 A 6.4167736 6.4167736 0 1 0 232.30437 317.97444 L 220.89873 317.97444 z M 323.95415 318.76729 L 323.64287 318.79475 C 323.64287 318.79475 318.42608 319.33617 313.226 322.5594 C 308.02602 325.78263 302.49969 332.57282 302.49969 342.571 C 302.49969 351.79289 305.59107 358.75683 309.94292 363.45967 C 314.29478 368.1624 319.33705 370.79756 323.3316 373.4499 C 327.86886 376.46273 332.10977 378.94332 334.794 381.48823 C 337.47832 384.03334 338.7564 386.03895 338.7564 390.09419 C 338.7564 398.49041 332.42835 402.99946 327.88909 402.99946 C 319.96666 402.99946 312.17864 402.49043 312.17864 402.49043 A 5.9843835 5.9843835 0 0 0 311.41509 414.4344 C 311.41509 414.4344 319.46851 414.94526 327.88909 414.94526 C 339.69304 414.94526 350.7022 404.54758 350.7022 390.09419 C 350.7022 382.72471 347.24664 376.79596 343.03191 372.79988 C 338.81709 368.8037 334.01129 366.18096 329.95452 363.48713 C 325.35494 360.43301 321.30012 358.12639 318.71734 355.33528 C 316.13465 352.54427 314.44366 349.41906 314.44366 342.571 C 314.44366 336.49907 316.82328 334.40532 319.53948 332.72175 C 322.14291 331.10801 324.61938 330.74115 324.83123 330.71126 L 340.65337 330.71126 A 5.9784307 5.9784307 0 1 0 340.65337 318.76729 L 324.2929 318.76729 L 323.95415 318.76729 z M 371.6458 342.82551 C 361.61383 342.82551 353.36272 351.10583 353.36272 361.13789 L 353.36272 396.8874 C 353.36272 406.91947 361.61383 415.19978 371.6458 415.19978 L 388.54461 415.19978 C 398.57659 415.19978 406.85699 406.91956 406.85699 396.8874 L 406.85699 361.13789 C 406.85699 351.10583 398.57659 342.82551 388.54461 342.82551 L 371.6458 342.82551 z M 593.69964 345.61238 A 4.567368 6.687932 25.14187 0 0 587.8897 350.02156 A 4.567368 6.687932 25.14187 0 0 589.18426 358.01777 A 4.567368 6.687932 25.14187 0 0 596.15874 353.90339 A 4.567368 6.687932 25.14187 0 0 594.86602 345.90901 A 4.567368 6.687932 25.14187 0 0 593.69964 345.61238 z M 581.27227 350.48298 A 4.567368 6.687932 25.14187 0 0 575.46416 354.89216 A 4.567368 6.687932 25.14187 0 0 576.75689 362.88655 A 4.567368 6.687932 25.14187 0 0 583.73321 358.77217 A 4.567368 6.687932 25.14187 0 0 582.44048 350.77778 A 4.567368 6.687932 25.14187 0 0 581.27227 350.48298 z M 609.12444 352.03023 C 603.41721 351.80218 605.53558 362.26399 605.53558 362.26399 L 559.59258 366.36555 L 559.29595 369.13045 L 612.01751 367.30122 C 612.01751 367.30122 616.1244 353.05694 609.70122 352.08699 C 609.5005 352.05669 609.30855 352.03763 609.12444 352.03023 z M 371.6458 355.64839 L 388.54461 355.64839 C 391.6895 355.64839 394.00664 357.99291 394.00664 361.13789 L 394.00664 396.8874 C 394.00664 400.03238 391.6895 402.37874 388.54461 402.37874 L 371.6458 402.37874 C 368.50093 402.37874 366.18377 400.03238 366.18377 396.8874 L 366.18377 361.13789 C 366.18377 357.99291 368.50093 355.64839 371.6458 355.64839 z M 488.68499 363.73799 L 435.96343 365.56721 C 435.96343 365.56721 431.85654 379.8115 438.27972 380.78145 C 444.70288 381.75149 442.4472 370.60261 442.4472 370.60261 L 488.39019 366.50288 L 488.68499 363.73799 z M 470.05767 369.68525 A 4.567368 6.687932 25.141871 0 0 464.24956 374.09443 A 4.567368 6.687932 25.141871 0 0 465.54229 382.08882 A 4.567368 6.687932 25.141871 0 0 472.51861 377.97627 A 4.567368 6.687932 25.141871 0 0 471.22588 369.98005 A 4.567368 6.687932 25.141871 0 0 470.05767 369.68525 z M 503.41949 370.33162 L 459.23431 416.53462 C 456.4303 419.05744 456.24473 424.87242 459.14641 427.37629 L 487.41241 453.87166 C 489.68813 456.09485 492.74333 456.54982 495.18157 454.4228 L 515.24444 431.38264 C 517.25308 429.23913 517.74493 426.87881 515.7553 424.16279 C 508.13449 415.45093 499.68597 409.10603 499.68597 409.10603 C 498.18056 408.06806 496.637 408.34589 495.06438 409.60042 L 484.94414 420.0832 C 483.23015 422.09574 483.73876 423.80351 485.30486 425.3658 L 496.15386 435.77717 L 497.21038 434.72798 L 487.91961 422.4947 L 497.58208 412.41475 L 511.6336 426.85261 L 491.16241 448.47188 L 467.24883 422.6009 L 511.1209 378.46333 L 503.41949 370.33162 z M 585.54412 373.4261 C 584.34649 373.30075 583.07889 373.67641 581.72088 374.67122 C 573.00912 382.29203 566.66412 390.73872 566.66412 390.73872 C 565.62615 392.24414 565.90205 393.7877 567.15667 395.3603 L 577.64129 405.48054 C 579.65373 407.19464 581.35984 406.68591 582.92205 405.11983 L 593.33526 394.27083 L 592.28423 393.21431 L 580.05279 402.50508 L 569.97283 392.8426 L 584.40887 378.79109 L 606.02996 399.26228 L 580.15899 423.17586 L 536.02142 379.30379 L 527.8897 387.0052 L 574.0927 431.19038 C 576.61561 433.99439 582.42865 434.17996 584.93255 431.27827 L 611.42974 403.01228 C 613.65295 400.73654 614.10606 397.68325 611.97906 395.24495 L 588.94073 375.18208 C 587.86902 374.17776 586.74175 373.55145 585.54412 373.4261 z M 457.63213 374.55403 A 4.567368 6.687932 25.141871 0 0 451.8222 378.96504 A 4.567368 6.687932 25.141871 0 0 453.11492 386.95942 A 4.567368 6.687932 25.141871 0 0 460.09124 382.84504 A 4.567368 6.687932 25.141871 0 0 458.79851 374.85066 A 4.567368 6.687932 25.141871 0 0 457.63213 374.55403 z M 521.29607 401.7397 L 523.12347 454.46126 C 523.12347 454.46126 537.36775 458.56815 538.3377 452.14497 C 539.30773 445.72181 528.1607 447.97749 528.1607 447.97749 L 524.05913 402.0345 L 521.29607 401.7397 z M 531.44561 417.03084 A 6.687932 4.567368 25.141871 0 0 527.53814 419.1988 A 6.687932 4.567368 25.141871 0 0 531.65252 426.17512 A 6.687932 4.567368 25.141871 0 0 539.6469 424.8824 A 6.687932 4.567368 25.141871 0 0 535.53252 417.90608 A 6.687932 4.567368 25.141871 0 0 531.44561 417.03084 z M 536.31621 429.4582 A 6.687932 4.567368 25.141871 0 0 532.40691 431.62617 A 6.687932 4.567368 25.141871 0 0 536.52129 438.60249 A 6.687932 4.567368 25.141871 0 0 544.51568 437.30977 A 6.687932 4.567368 25.141871 0 0 540.40313 430.33345 A 6.687932 4.567368 25.141871 0 0 536.31621 429.4582 z " />
    <circle
       r="46.820286"
       cy="366.39594"
       cx="524.34546"
       style="color:#000000;display:inline;overflow:visible;visibility:visible;fill:#0055d4;fill-opacity:1;fill-rule:nonzero;stroke:none;stroke-width:0.687159;marker:none;enable-background:accumulate"
       id="path20223" />
    <circle
       r="46.820286"
       cy="366.39594"
       cx="524.34546"
       style="color:#000000;display:inline;overflow:visible;visibility:visible;fill:url(#linearGradient4);fill-opacity:1;fill-rule:nonzero;stroke:none;stroke-width:0.687159;marker:none;enable-background:accumulate"
       id="path20223-2" />
    <path
       inkscape:connector-curvature="0"
       id="path20231"
       d="m 501.82584,333.02902 c -0.63419,0.0263 -1.19339,0.18405 -1.61927,0.53375 -0.23585,2.282 0.56853,5.21059 2.31098,6.81301 -0.15035,-0.19482 -0.33168,-0.54797 -0.58166,-1.13017 -0.77323,-1.31503 -2.16443,-7.14723 0.5188,-4.33284 1.57299,3.30456 2.08527,7.33761 4.52776,10.26674 1.86155,3.05667 5.39798,3.25412 8.37947,4.01874 2.58876,1.25589 3.42149,4.97392 6.20988,5.71426 1.98528,2.58107 -0.50531,5.81191 -1.58793,8.30439 -2.17167,3.84701 2.28426,6.18235 3.69457,9.19916 2.85388,3.93921 5.56048,9.15569 3.41154,14.11276 -1.26993,3.58625 -1.57824,7.54828 -2.48398,11.28705 -0.40296,2.65217 -0.97493,8.22451 1.88655,8.74394 0.5736,-2.86818 0.34672,-5.95491 2.65688,-8.11599 2.27248,-4.3237 6.6997,-7.0207 10.0616,-10.07827 1.55061,-1.84244 4.55538,-6.02411 7.53053,-8.06898 1.31938,-2.233 0.92475,-6.02774 3.34867,-8.24162 1.85693,-1.96418 2.77951,-6.52363 -0.78608,-7.06417 -4.75238,-1.89443 -8.66161,-5.49037 -11.82244,-9.56028 -3.42312,-1.84389 -5.57251,-2.34757 -9.22352,-3.52221 -0.22227,-0.0725 -0.52741,1.91762 -1.19294,1.911 -0.91008,-0.009 0.20995,-2.54565 -1.76745,-2.47029 -0.33122,1.0905 -2.22212,2.81511 -3.52167,3.18673 -0.50159,-0.81833 -2.28262,-2.53614 -2.15383,-3.92454 -0.0589,-2.79672 -3.63153,-2.86556 -2.26387,-5.52578 -0.81697,-2.34386 -4.09917,3.44106 -5.43947,-0.51817 -0.79243,-3.43943 -0.93028,-9.26673 -4.10333,-9.92121 -1.52915,-0.60557 -4.0873,-1.69463 -5.98979,-1.61701 z m 19.63736,9.66815 c 0.3142,0.0984 1.71745,-0.32941 3.26245,-0.30478 1.45606,0.0236 3.88568,1.22184 4.32623,0.83971 -0.68645,-2.27602 -5.52777,-1.85757 -5.43675,-1.84697 -0.73147,0.61544 -2.67544,1.1155 -2.15193,1.31204 z m 15.93872,4.32687 c -0.12092,0.21357 -0.73582,0.26692 -0.73654,-0.17091 0.24165,-0.42316 0.71199,-0.0598 0.73654,0.17091 z m -2.92443,-0.84414 c -2.74926,-0.0851 -0.94196,-1.48522 -2.40164,-1.45352 -1.02321,0.0217 -0.7331,1.09629 -2.50689,0.931 1.63078,0.76797 1.74064,0.57894 2.8767,1.18578 1.6122,-0.0954 2.60235,-0.0725 2.03183,-0.66326 z"
       style="font-size:12px;fill:#ccff00;fill-opacity:1;fill-rule:nonzero;stroke:none;stroke-width:0.905732;stroke-opacity:1"
       sodipodi:nodetypes="cccccccccccccccccccssccccccccscccccccsccc" />
    <path
       inkscape:connector-curvature="0"
       id="path20231-0"
       d="m 501.82584,333.02902 c -0.63419,0.0263 -1.19339,0.18405 -1.61927,0.53375 -0.23585,2.282 0.56853,5.21059 2.31098,6.81301 -0.15035,-0.19482 -0.33168,-0.54797 -0.58166,-1.13017 -0.77323,-1.31503 -2.16443,-7.14723 0.5188,-4.33284 1.57299,3.30456 2.08527,7.33761 4.52776,10.26674 1.86155,3.05667 5.39798,3.25412 8.37947,4.01874 2.58876,1.25589 3.42149,4.97392 6.20988,5.71426 1.98528,2.58107 -0.50531,5.81191 -1.58793,8.30439 -2.17167,3.84701 2.28426,6.18235 3.69457,9.19916 2.85388,3.93921 5.56048,9.15569 3.41154,14.11276 -1.26993,3.58625 -1.57824,7.54828 -2.48398,11.28705 -0.40296,2.65217 -0.97493,8.22451 1.88655,8.74394 0.5736,-2.86818 0.34672,-5.95491 2.65688,-8.11599 2.27248,-4.3237 6.6997,-7.0207 10.0616,-10.07827 1.55061,-1.84244 4.55538,-6.02411 7.53053,-8.06898 1.31938,-2.233 0.92475,-6.02774 3.34867,-8.24162 1.85693,-1.96418 2.77951,-6.52363 -0.78608,-7.06417 -4.75238,-1.89443 -8.66161,-5.49037 -11.82244,-9.56028 -3.42312,-1.84389 -5.57251,-2.34757 -9.22352,-3.52221 -0.22227,-0.0725 -0.52741,1.91762 -1.19294,1.911 -0.91008,-0.009 0.20995,-2.54565 -1.76745,-2.47029 -0.33122,1.0905 -2.22212,2.81511 -3.52167,3.18673 -0.50159,-0.81833 -2.28262,-2.53614 -2.15383,-3.92454 -0.0589,-2.79672 -3.63153,-2.86556 -2.26387,-5.52578 -0.81697,-2.34386 -4.09917,3.44106 -5.43947,-0.51817 -0.79243,-3.43943 -0.93028,-9.26673 -4.10333,-9.92121 -1.52915,-0.60557 -4.0873,-1.69463 -5.98979,-1.61701 z m 19.63736,9.66815 c 0.3142,0.0984 1.71745,-0.32941 3.26245,-0.30478 1.45606,0.0236 3.88568,1.22184 4.32623,0.83971 -0.68645,-2.27602 -5.52777,-1.85757 -5.43675,-1.84697 -0.73147,0.61544 -2.67544,1.1155 -2.15193,1.31204 z m 15.93872,4.32687 c -0.12092,0.21357 -0.73582,0.26692 -0.73654,-0.17091 0.24165,-0.42316 0.71199,-0.0598 0.73654,0.17091 z m -2.92443,-0.84414 c -2.74926,-0.0851 -0.94196,-1.48522 -2.40164,-1.45352 -1.02321,0.0217 -0.7331,1.09629 -2.50689,0.931 1.63078,0.76797 1.74064,0.57894 2.8767,1.18578 1.6122,-0.0954 2.60235,-0.0725 2.03183,-0.66326 z"
       style="font-size:12px;fill:url(#linearGradient6);fill-opacity:1;fill-rule:nonzero;stroke:none;stroke-width:0.905732;stroke-opacity:1"
       sodipodi:nodetypes="cccccccccccccccccccssccccccccscccccccsccc" />
  </g>
</svg>
