<?xml version="1.0" encoding="UTF-8" standalone="no"?>
<!-- Created with Inkscape (http://www.inkscape.org/) -->

<svg
   width="512"
   height="512"
   viewBox="0 0 135.46666 135.46667"
   version="1.1"
   id="svg1"
   inkscape:version="1.3.2 (091e20e, 2023-11-25, custom)"
   sodipodi:docname="icon-512x512.svg"
   xml:space="preserve"
   inkscape:export-filename="icon-512x512.png"
   inkscape:export-xdpi="96"
   inkscape:export-ydpi="96"
   xmlns:inkscape="http://www.inkscape.org/namespaces/inkscape"
   xmlns:sodipodi="http://sodipodi.sourceforge.net/DTD/sodipodi-0.dtd"
   xmlns:xlink="http://www.w3.org/1999/xlink"
   xmlns="http://www.w3.org/2000/svg"
   xmlns:svg="http://www.w3.org/2000/svg"><sodipodi:namedview
     id="namedview1"
     pagecolor="#ffffff"
     bordercolor="#000000"
     borderopacity="0.25"
     inkscape:showpageshadow="2"
     inkscape:pageopacity="0.0"
     inkscape:pagecheckerboard="0"
     inkscape:deskcolor="#d1d1d1"
     inkscape:document-units="mm"
     inkscape:zoom="0.73139029"
     inkscape:cx="395.8215"
     inkscape:cy="123.73694"
     inkscape:window-width="2560"
     inkscape:window-height="1017"
     inkscape:window-x="-8"
     inkscape:window-y="-8"
     inkscape:window-maximized="1"
     inkscape:current-layer="layer1" /><defs
     id="defs1"><linearGradient
       inkscape:collect="always"
       xlink:href="#linearGradient1"
       id="linearGradient2"
       x1="430.87497"
       y1="346.37082"
       x2="193.647"
       y2="453.85736"
       gradientUnits="userSpaceOnUse" /><linearGradient
       id="linearGradient1"
       inkscape:collect="always"><stop
         style="stop-color:#fea842;stop-opacity:1;"
         offset="0"
         id="stop1" /><stop
         style="stop-color:#fea842;stop-opacity:0;"
         offset="1"
         id="stop2" /></linearGradient><linearGradient
       inkscape:collect="always"
       xlink:href="#linearGradient3"
       id="linearGradient4"
       x1="569.61316"
       y1="321.27484"
       x2="478.6994"
       y2="412.66208"
       gradientUnits="userSpaceOnUse" /><linearGradient
       id="linearGradient3"
       inkscape:collect="always"><stop
         style="stop-color:#3aaaf3;stop-opacity:1;"
         offset="0"
         id="stop3" /><stop
         style="stop-color:#3aaaf3;stop-opacity:0;"
         offset="1"
         id="stop4" /></linearGradient><linearGradient
       inkscape:collect="always"
       xlink:href="#linearGradient5"
       id="linearGradient6"
       x1="502.37485"
       y1="404.61246"
       x2="523.6828"
       y2="362.47012"
       gradientUnits="userSpaceOnUse" /><linearGradient
       id="linearGradient5"
       inkscape:collect="always"><stop
         style="stop-color:#9fc700;stop-opacity:1;"
         offset="0"
         id="stop5" /><stop
         style="stop-color:#9fc700;stop-opacity:0;"
         offset="1"
         id="stop6" /></linearGradient></defs><g
     inkscape:label="Layer 1"
     inkscape:groupmode="layer"
     id="layer1"><g
       id="g6"
       transform="matrix(0.5716523,0,0,0.5716523,-231.80724,-141.73934)"><path
         id="path20109-2"
         style="color:#000000;display:inline;overflow:visible;visibility:visible;fill:#ff8e2a;fill-opacity:1;fill-rule:nonzero;stroke:none;stroke-width:2.34699;marker:none;enable-background:accumulate"
         d="m 556.74529,277.08882 c -1.35266,-0.12562 -2.72493,0.2933 -3.94409,1.35681 l -20.06287,23.03833 c -2.00863,2.14342 -2.50048,4.50566 -0.51086,7.22168 7.62082,8.71178 16.0675,15.05493 16.0675,15.05493 1.50542,1.03797 3.04906,0.76207 4.62159,-0.49255 l 10.12207,-10.48462 c 1.7141,-2.01245 1.20355,-3.71855 -0.36255,-5.28076 l -10.84717,-10.41321 -1.05652,1.05102 9.28894,12.23145 -9.66064,10.07996 -14.05335,-14.43604 20.47303,-21.62109 23.91357,25.87097 -43.87207,44.13757 7.70142,8.13172 44.18518,-46.20301 c 2.80391,-2.52291 2.98957,-8.33595 0.0879,-10.83984 l -28.26783,-26.49719 c -1.13782,-1.11161 -2.47057,-1.78051 -3.82324,-1.90613 z m -40.51025,0.0256 c -3.20151,0.005 -6.16745,0.79887 -6.5918,3.60901 -0.97004,6.42318 10.17883,4.16565 10.17883,4.16565 l 4.09974,45.943 2.76489,0.29663 -1.82923,-52.72156 c 0,0 -4.5062,-1.29901 -8.62243,-1.29273 z m -8.86048,16.27625 a 6.687932,4.567368 25.14187 0 0 -3.9093,2.16797 6.687932,4.567368 25.14187 0 0 4.11438,6.97632 6.687932,4.567368 25.14187 0 0 7.99439,-1.29273 6.687932,4.567368 25.14187 0 0 -4.11438,-6.97632 6.687932,4.567368 25.14187 0 0 -4.08509,-0.87524 z m -38.91174,6.1029 c -2.08173,-0.0342 -4.16065,0.64571 -5.4126,2.09656 l -26.49719,28.26599 c -2.22321,2.27575 -2.67816,5.32902 -0.55115,7.76734 l 23.04016,20.06286 c 2.1435,2.00864 4.50384,2.50049 7.21985,0.51087 8.71187,-7.62082 15.05677,-16.06751 15.05677,-16.06751 1.03797,-1.50542 0.76014,-3.04905 -0.49439,-4.62158 l -10.48279,-10.12207 c -2.01253,-1.7141 -3.72029,-1.20355 -5.28259,0.36255 l -10.41138,10.84717 1.0492,1.05652 12.23327,-9.28894 10.07996,9.66064 -14.43787,14.05334 -21.61926,-20.47302 25.87097,-23.91357 44.13758,43.87207 8.13171,-7.69959 -46.203,-44.18518 c -1.26146,-1.40196 -3.34552,-2.15025 -5.42725,-2.18445 z m 43.78052,6.32264 a 6.687932,4.567368 25.14187 0 0 -3.90747,2.1698 6.687932,4.567368 25.14187 0 0 4.11255,6.97448 6.687932,4.567368 25.14187 0 0 7.99621,-1.29272 6.687932,4.567368 25.14187 0 0 -4.11438,-6.97632 6.687932,4.567368 25.14187 0 0 -4.08691,-0.87524 z m 81.4563,39.79614 a 4.567368,6.687932 25.14187 0 0 -5.80994,4.40918 4.567368,6.687932 25.14187 0 0 1.29456,7.99621 4.567368,6.687932 25.14187 0 0 6.97448,-4.11438 4.567368,6.687932 25.14187 0 0 -1.29272,-7.99438 4.567368,6.687932 25.14187 0 0 -1.16638,-0.29663 z m -12.42737,4.8706 a 4.567368,6.687932 25.14187 0 0 -5.80811,4.40918 4.567368,6.687932 25.14187 0 0 1.29273,7.99439 4.567368,6.687932 25.14187 0 0 6.97632,-4.11438 4.567368,6.687932 25.14187 0 0 -1.29273,-7.99439 4.567368,6.687932 25.14187 0 0 -1.16821,-0.2948 z m 27.85217,1.54725 c -5.70724,-0.22805 -3.58886,10.23376 -3.58886,10.23376 l -45.943,4.10156 -0.29663,2.7649 52.72156,-1.82923 c 0,0 4.10689,-14.24428 -2.31629,-15.21423 -0.20072,-0.0303 -0.39267,-0.0494 -0.57678,-0.0568 z m -120.43945,11.70776 -52.72156,1.82922 c 0,0 -4.10689,14.24429 2.31629,15.21424 6.42317,0.97004 4.16748,-10.17884 4.16748,-10.17884 l 45.94299,-4.09973 z m -18.62732,5.94726 a 4.567368,6.687932 25.141871 0 0 -5.80811,4.40918 4.567368,6.687932 25.141871 0 0 1.29273,7.99439 4.567368,6.687932 25.141871 0 0 6.97632,-4.11255 4.567368,6.687932 25.141871 0 0 -1.29273,-7.99622 4.567368,6.687932 25.141871 0 0 -1.16821,-0.2948 z m 33.36182,0.64637 -44.18518,46.203 c -2.80401,2.52282 -2.98959,8.33779 -0.0879,10.84167 l 28.266,26.49537 c 2.27573,2.2232 5.33092,2.67816 7.76916,0.55114 l 20.06287,-23.04016 c 2.00864,-2.14351 2.50049,-4.50383 0.51086,-7.21985 -7.62082,-8.71187 -16.06933,-15.05676 -16.06933,-15.05676 -1.50541,-1.03797 -3.04897,-0.76014 -4.62159,0.49439 l -10.12024,10.48278 c -1.714,2.01254 -1.20538,3.72031 0.36072,5.2826 l 10.849,10.41137 1.05652,-1.04919 -9.29077,-12.23328 9.66247,-10.07995 14.05152,14.43786 -20.47119,21.61927 -23.91358,-25.87098 43.87207,-44.13757 z m 82.12463,3.09448 c -1.19763,-0.12535 -2.46523,0.25031 -3.82324,1.24512 -8.71177,7.62082 -15.05676,16.0675 -15.05676,16.0675 -1.03797,1.50542 -0.76207,3.04897 0.49255,4.62158 l 10.48462,10.12024 c 2.01244,1.7141 3.71855,1.20538 5.28076,-0.36071 l 10.41321,-10.849 -1.05103,-1.05652 -12.23144,9.29077 -10.07996,-9.66248 14.43604,-14.05151 21.62109,20.47119 -25.87097,23.91358 -44.13757,-43.87207 -8.13172,7.70141 46.203,44.18518 c 2.52291,2.80401 8.33595,2.98959 10.83985,0.0879 l 26.49719,-28.26599 c 2.22321,-2.27574 2.67633,-5.32902 0.54932,-7.76733 l -23.03833,-20.06287 c -1.07171,-1.00432 -2.19898,-1.63063 -3.39661,-1.75598 z M 457.63213,374.554 a 4.567368,6.687932 25.141871 0 0 -5.80993,4.41101 4.567368,6.687932 25.141871 0 0 1.29272,7.99438 4.567368,6.687932 25.141871 0 0 6.97632,-4.11438 4.567368,6.687932 25.141871 0 0 -1.29273,-7.99438 4.567368,6.687932 25.141871 0 0 -1.16638,-0.29663 z m 63.66394,27.18567 1.8274,52.72156 c 0,0 14.24428,4.10689 15.21423,-2.31629 0.97003,-6.42317 -10.177,-4.16748 -10.177,-4.16748 l -4.10157,-45.94299 z m 10.14954,15.29114 a 6.687932,4.567368 25.141871 0 0 -3.90747,2.16796 6.687932,4.567368 25.141871 0 0 4.11438,6.97632 6.687932,4.567368 25.141871 0 0 7.99438,-1.29272 6.687932,4.567368 25.141871 0 0 -4.11438,-6.97632 6.687932,4.567368 25.141871 0 0 -4.08691,-0.87524 z m 4.8706,12.42736 a 6.687932,4.567368 25.141871 0 0 -3.9093,2.16797 6.687932,4.567368 25.141871 0 0 4.11438,6.97632 6.687932,4.567368 25.141871 0 0 7.99439,-1.29272 6.687932,4.567368 25.141871 0 0 -4.11255,-6.97632 6.687932,4.567368 25.141871 0 0 -4.08692,-0.87525 z" /><path
         id="path20109-9"
         style="color:#000000;display:inline;overflow:visible;visibility:visible;fill:url(#linearGradient2);fill-opacity:1;fill-rule:nonzero;stroke:none;stroke-width:2.34699;marker:none;enable-background:accumulate"
         d="m 556.74529,277.08882 c -1.35266,-0.12562 -2.72493,0.2933 -3.94409,1.35681 l -20.06287,23.03833 c -2.00862,2.14342 -2.50048,4.50566 -0.51086,7.22168 7.62081,8.71177 16.0675,15.05493 16.0675,15.05493 1.50542,1.03797 3.04906,0.76207 4.62159,-0.49255 l 10.12207,-10.48462 c 1.7141,-2.01245 1.20355,-3.71855 -0.36255,-5.28076 l -10.84717,-10.41321 -1.05652,1.05102 9.28894,12.23145 -9.66064,10.07996 -14.05335,-14.43604 20.47303,-21.62109 23.91357,25.87097 -43.87207,44.13757 7.70142,8.13172 44.18518,-46.20301 c 2.8039,-2.5229 2.98955,-8.33595 0.0879,-10.83984 l -28.26783,-26.49719 c -1.13781,-1.11161 -2.47057,-1.78051 -3.82324,-1.90613 z m -40.51025,0.0256 c -3.20151,0.005 -6.16745,0.79888 -6.5918,3.60901 -0.97004,6.42318 10.17883,4.16565 10.17883,4.16565 l 4.09974,45.943 2.76489,0.29663 -1.82923,-52.72156 c 0,0 -4.50621,-1.29901 -8.62243,-1.29273 z m -8.86048,16.27625 c -1.86085,0.0813 -3.30567,0.88257 -3.9093,2.16797 -1.07175,2.28365 0.77038,5.40715 4.11438,6.97632 3.34335,1.56905 6.92236,0.99031 7.99439,-1.29273 1.07175,-2.28365 -0.77038,-5.40715 -4.11438,-6.97632 -1.33225,-0.6252 -2.76813,-0.93284 -4.08509,-0.87524 z m -38.91174,6.1029 c -2.08173,-0.0342 -4.16065,0.64571 -5.4126,2.09656 l -26.49719,28.26599 c -2.22321,2.27575 -2.67815,5.32902 -0.55115,7.76734 l 23.04016,20.06286 c 2.1435,2.00864 4.50385,2.50049 7.21985,0.51087 8.71186,-7.62081 15.05677,-16.06751 15.05677,-16.06751 1.03797,-1.50542 0.76014,-3.04905 -0.49439,-4.62158 l -10.48279,-10.12207 c -2.01252,-1.7141 -3.72029,-1.20355 -5.28259,0.36255 l -10.41138,10.84717 1.0492,1.05652 12.23327,-9.28894 10.07996,9.66064 -14.43787,14.05334 -21.61926,-20.47302 25.87097,-23.91357 44.13758,43.87207 8.13171,-7.69959 -46.203,-44.18518 c -1.26146,-1.40196 -3.34552,-2.15025 -5.42725,-2.18445 z m 43.78052,6.32264 c -1.86057,0.082 -3.30472,0.88396 -3.90747,2.1698 -1.07067,2.28305 0.77026,5.4051 4.11255,6.97448 3.34407,1.57007 6.92442,0.99125 7.99621,-1.29272 1.07175,-2.28365 -0.77038,-5.40715 -4.11438,-6.97632 -1.33287,-0.62552 -2.76945,-0.93317 -4.08691,-0.87524 z m 81.4563,39.79614 c -2.14053,-0.13978 -4.52359,1.66874 -5.80994,4.40918 -1.57008,3.34478 -0.99038,6.92546 1.29456,7.99621 2.28345,1.07016 5.40558,-0.77164 6.97448,-4.11438 1.56904,-3.34335 0.99031,-6.92234 -1.29272,-7.99438 -0.36113,-0.16977 -0.75327,-0.2695 -1.16638,-0.29663 z m -12.42737,4.8706 c -2.14012,-0.13865 -4.52214,1.66964 -5.80811,4.40918 -1.56905,3.34335 -0.99031,6.92236 1.29273,7.99439 2.28365,1.07175 5.40715,-0.77038 6.97632,-4.11438 1.56905,-3.34335 0.99031,-6.92236 -1.29273,-7.99439 -0.36176,-0.16931 -0.75451,-0.26842 -1.16821,-0.2948 z m 27.85217,1.54725 c -5.70723,-0.22805 -3.58886,10.23376 -3.58886,10.23376 l -45.943,4.10156 -0.29663,2.7649 52.72156,-1.82923 c 0,0 4.10689,-14.24428 -2.31629,-15.21423 -0.20072,-0.0303 -0.39267,-0.0494 -0.57678,-0.0568 z m -120.43945,11.70776 -52.72156,1.82922 c 0,0 -4.10689,14.24429 2.31629,15.21424 6.42316,0.97004 4.16748,-10.17884 4.16748,-10.17884 l 45.94299,-4.09973 z m -18.62732,5.94726 c -2.14012,-0.13865 -4.52214,1.66964 -5.80811,4.40918 -1.56905,3.34335 -0.99031,6.92236 1.29273,7.99439 2.28326,1.07226 5.40667,-0.769 6.97632,-4.11255 1.57008,-3.34408 0.99125,-6.92444 -1.29273,-7.99622 -0.36176,-0.16931 -0.75451,-0.26842 -1.16821,-0.2948 z m 33.36182,0.64637 -44.18518,46.203 c -2.80401,2.52282 -2.98958,8.3378 -0.0879,10.84167 l 28.266,26.49537 c 2.27572,2.22319 5.33092,2.67816 7.76916,0.55114 l 20.06287,-23.04016 c 2.00864,-2.14351 2.50049,-4.50383 0.51086,-7.21985 -7.62081,-8.71186 -16.06933,-15.05676 -16.06933,-15.05676 -1.50541,-1.03797 -3.04897,-0.76014 -4.62159,0.49439 l -10.12024,10.48278 c -1.71399,2.01254 -1.20538,3.72031 0.36072,5.2826 l 10.849,10.41137 1.05652,-1.04919 -9.29077,-12.23328 9.66247,-10.07995 14.05152,14.43786 -20.47119,21.61927 -23.91358,-25.87098 43.87207,-44.13757 z m 82.12463,3.09448 c -1.19763,-0.12535 -2.46523,0.25031 -3.82324,1.24512 -8.71176,7.62081 -15.05676,16.0675 -15.05676,16.0675 -1.03797,1.50542 -0.76207,3.04898 0.49255,4.62158 l 10.48462,10.12024 c 2.01244,1.7141 3.71855,1.20537 5.28076,-0.36071 l 10.41321,-10.849 -1.05103,-1.05652 -12.23144,9.29077 -10.07996,-9.66248 14.43604,-14.05151 21.62109,20.47119 -25.87097,23.91358 -44.13757,-43.87207 -8.13172,7.70141 46.203,44.18518 c 2.52291,2.80401 8.33595,2.98958 10.83985,0.0879 l 26.49719,-28.26599 c 2.22321,-2.27574 2.67632,-5.32903 0.54932,-7.76733 l -23.03833,-20.06287 c -1.07171,-1.00432 -2.19898,-1.63063 -3.39661,-1.75598 z M 457.63213,374.554 c -2.14086,-0.13928 -4.52401,1.67005 -5.80993,4.41101 -1.56904,3.34335 -0.99031,6.92234 1.29272,7.99438 2.28365,1.07175 5.40715,-0.77038 6.97632,-4.11438 1.56904,-3.34335 0.9903,-6.92235 -1.29273,-7.99438 -0.36113,-0.16977 -0.75327,-0.2695 -1.16638,-0.29663 z m 63.66394,27.18567 1.8274,52.72156 c 0,0 14.24428,4.10689 15.21423,-2.31629 0.97003,-6.42316 -10.177,-4.16748 -10.177,-4.16748 l -4.10157,-45.94299 z m 10.14954,15.29114 c -1.86003,0.0818 -3.30407,0.88297 -3.90747,2.16796 -1.07175,2.28365 0.77038,5.40715 4.11438,6.97632 3.34335,1.56904 6.92234,0.99031 7.99438,-1.29272 1.07175,-2.28365 -0.77038,-5.40715 -4.11438,-6.97632 -1.33287,-0.62552 -2.76945,-0.93317 -4.08691,-0.87524 z m 4.8706,12.42736 c -1.86085,0.0813 -3.30567,0.88257 -3.9093,2.16797 -1.07175,2.28365 0.77038,5.40715 4.11438,6.97632 3.34335,1.56905 6.92235,0.99031 7.99439,-1.29272 1.07226,-2.28326 -0.769,-5.40667 -4.11255,-6.97632 -1.33287,-0.62552 -2.76946,-0.93318 -4.08692,-0.87525 z"
         sodipodi:nodetypes="scccccccccccccccccccscccccccscccssscccccccccccccccccccsccccsccscccccccccccccccscccccccccccccccccccccccccccccccccscccccccccccccccccccsccccccccscccscccsscccccc" /><circle
         r="46.820286"
         cy="366.39594"
         cx="524.34546"
         style="color:#000000;display:inline;overflow:visible;visibility:visible;fill:#0055d4;fill-opacity:1;fill-rule:nonzero;stroke:none;stroke-width:0.687159;marker:none;enable-background:accumulate"
         id="path20223-4" /><circle
         r="46.820286"
         cy="366.39594"
         cx="524.34546"
         style="color:#000000;display:inline;overflow:visible;visibility:visible;fill:url(#linearGradient4);fill-opacity:1;fill-rule:nonzero;stroke:none;stroke-width:0.687159;marker:none;enable-background:accumulate"
         id="path20223-2" /><path
         inkscape:connector-curvature="0"
         id="path20231-7"
         d="m 501.82584,333.02902 c -0.63419,0.0263 -1.19339,0.18405 -1.61927,0.53375 -0.23585,2.282 0.56853,5.21059 2.31098,6.81301 -0.15035,-0.19482 -0.33168,-0.54797 -0.58166,-1.13017 -0.77323,-1.31503 -2.16443,-7.14723 0.5188,-4.33284 1.57299,3.30456 2.08527,7.33761 4.52776,10.26674 1.86155,3.05667 5.39798,3.25412 8.37947,4.01874 2.58876,1.25589 3.42149,4.97392 6.20988,5.71426 1.98528,2.58107 -0.50531,5.81191 -1.58793,8.30439 -2.17167,3.84701 2.28426,6.18235 3.69457,9.19916 2.85388,3.93921 5.56048,9.15569 3.41154,14.11276 -1.26993,3.58625 -1.57824,7.54828 -2.48398,11.28705 -0.40296,2.65217 -0.97493,8.22451 1.88655,8.74394 0.5736,-2.86818 0.34672,-5.95491 2.65688,-8.11599 2.27248,-4.3237 6.6997,-7.0207 10.0616,-10.07827 1.55061,-1.84244 4.55538,-6.02411 7.53053,-8.06898 1.31938,-2.233 0.92475,-6.02774 3.34867,-8.24162 1.85693,-1.96418 2.77951,-6.52363 -0.78608,-7.06417 -4.75238,-1.89443 -8.66161,-5.49037 -11.82244,-9.56028 -3.42312,-1.84389 -5.57251,-2.34757 -9.22352,-3.52221 -0.22227,-0.0725 -0.52741,1.91762 -1.19294,1.911 -0.91008,-0.009 0.20995,-2.54565 -1.76745,-2.47029 -0.33122,1.0905 -2.22212,2.81511 -3.52167,3.18673 -0.50159,-0.81833 -2.28262,-2.53614 -2.15383,-3.92454 -0.0589,-2.79672 -3.63153,-2.86556 -2.26387,-5.52578 -0.81697,-2.34386 -4.09917,3.44106 -5.43947,-0.51817 -0.79243,-3.43943 -0.93028,-9.26673 -4.10333,-9.92121 -1.52915,-0.60557 -4.0873,-1.69463 -5.98979,-1.61701 z m 19.63736,9.66815 c 0.3142,0.0984 1.71745,-0.32941 3.26245,-0.30478 1.45606,0.0236 3.88568,1.22184 4.32623,0.83971 -0.68645,-2.27602 -5.52777,-1.85757 -5.43675,-1.84697 -0.73147,0.61544 -2.67544,1.1155 -2.15193,1.31204 z m 15.93872,4.32687 c -0.12092,0.21357 -0.73582,0.26692 -0.73654,-0.17091 0.24165,-0.42316 0.71199,-0.0598 0.73654,0.17091 z m -2.92443,-0.84414 c -2.74926,-0.0851 -0.94196,-1.48522 -2.40164,-1.45352 -1.02321,0.0217 -0.7331,1.09629 -2.50689,0.931 1.63078,0.76797 1.74064,0.57894 2.8767,1.18578 1.6122,-0.0954 2.60235,-0.0725 2.03183,-0.66326 z"
         style="font-size:12px;fill:#ccff00;fill-opacity:1;fill-rule:nonzero;stroke:none;stroke-width:0.905732;stroke-opacity:1"
         sodipodi:nodetypes="cccccccccccccccccccssccccccccscccccccsccc" /><path
         inkscape:connector-curvature="0"
         id="path20231-0"
         d="m 501.82584,333.02902 c -0.63419,0.0263 -1.19339,0.18405 -1.61927,0.53375 -0.23585,2.282 0.56853,5.21059 2.31098,6.81301 -0.15035,-0.19482 -0.33168,-0.54797 -0.58166,-1.13017 -0.77323,-1.31503 -2.16443,-7.14723 0.5188,-4.33284 1.57299,3.30456 2.08527,7.33761 4.52776,10.26674 1.86155,3.05667 5.39798,3.25412 8.37947,4.01874 2.58876,1.25589 3.42149,4.97392 6.20988,5.71426 1.98528,2.58107 -0.50531,5.81191 -1.58793,8.30439 -2.17167,3.84701 2.28426,6.18235 3.69457,9.19916 2.85388,3.93921 5.56048,9.15569 3.41154,14.11276 -1.26993,3.58625 -1.57824,7.54828 -2.48398,11.28705 -0.40296,2.65217 -0.97493,8.22451 1.88655,8.74394 0.5736,-2.86818 0.34672,-5.95491 2.65688,-8.11599 2.27248,-4.3237 6.6997,-7.0207 10.0616,-10.07827 1.55061,-1.84244 4.55538,-6.02411 7.53053,-8.06898 1.31938,-2.233 0.92475,-6.02774 3.34867,-8.24162 1.85693,-1.96418 2.77951,-6.52363 -0.78608,-7.06417 -4.75238,-1.89443 -8.66161,-5.49037 -11.82244,-9.56028 -3.42312,-1.84389 -5.57251,-2.34757 -9.22352,-3.52221 -0.22227,-0.0725 -0.52741,1.91762 -1.19294,1.911 -0.91008,-0.009 0.20995,-2.54565 -1.76745,-2.47029 -0.33122,1.0905 -2.22212,2.81511 -3.52167,3.18673 -0.50159,-0.81833 -2.28262,-2.53614 -2.15383,-3.92454 -0.0589,-2.79672 -3.63153,-2.86556 -2.26387,-5.52578 -0.81697,-2.34386 -4.09917,3.44106 -5.43947,-0.51817 -0.79243,-3.43943 -0.93028,-9.26673 -4.10333,-9.92121 -1.52915,-0.60557 -4.0873,-1.69463 -5.98979,-1.61701 z m 19.63736,9.66815 c 0.3142,0.0984 1.71745,-0.32941 3.26245,-0.30478 1.45606,0.0236 3.88568,1.22184 4.32623,0.83971 -0.68645,-2.27602 -5.52777,-1.85757 -5.43675,-1.84697 -0.73147,0.61544 -2.67544,1.1155 -2.15193,1.31204 z m 15.93872,4.32687 c -0.12092,0.21357 -0.73582,0.26692 -0.73654,-0.17091 0.24165,-0.42316 0.71199,-0.0598 0.73654,0.17091 z m -2.92443,-0.84414 c -2.74926,-0.0851 -0.94196,-1.48522 -2.40164,-1.45352 -1.02321,0.0217 -0.7331,1.09629 -2.50689,0.931 1.63078,0.76797 1.74064,0.57894 2.8767,1.18578 1.6122,-0.0954 2.60235,-0.0725 2.03183,-0.66326 z"
         style="font-size:12px;fill:url(#linearGradient6);fill-opacity:1;fill-rule:nonzero;stroke:none;stroke-width:0.905732;stroke-opacity:1"
         sodipodi:nodetypes="cccccccccccccccccccssccccccccscccccccsccc" /></g></g></svg>
